<?xml version="1.0" encoding="utf-8"?>
<svg xmlns="http://www.w3.org/2000/svg" xmlns:xlink="http://www.w3.org/1999/xlink" width="600" height="400" viewBox="0 0 2400 1600">
<defs>
  <clipPath id="clip750">
    <rect x="0" y="0" width="2400" height="1600"/>
  </clipPath>
</defs>
<path clip-path="url(#clip750)" d="M0 1600 L2400 1600 L2400 0 L0 0  Z" fill="#ffffff" fill-rule="evenodd" fill-opacity="1"/>
<defs>
  <clipPath id="clip751">
    <rect x="480" y="0" width="1681" height="1600"/>
  </clipPath>
</defs>
<path clip-path="url(#clip750)" d="M276.876 1423.18 L2083.91 1423.18 L2083.91 47.2441 L276.876 47.2441  Z" fill="#ffffff" fill-rule="evenodd" fill-opacity="1"/>
<defs>
  <clipPath id="clip752">
    <rect x="276" y="47" width="1808" height="1377"/>
  </clipPath>
</defs>
<polyline clip-path="url(#clip752)" style="stroke:#000000; stroke-linecap:round; stroke-linejoin:round; stroke-width:2; stroke-opacity:0.1; fill:none" points="319.451,1423.18 319.451,47.2441 "/>
<polyline clip-path="url(#clip752)" style="stroke:#000000; stroke-linecap:round; stroke-linejoin:round; stroke-width:2; stroke-opacity:0.1; fill:none" points="747.78,1423.18 747.78,47.2441 "/>
<polyline clip-path="url(#clip752)" style="stroke:#000000; stroke-linecap:round; stroke-linejoin:round; stroke-width:2; stroke-opacity:0.1; fill:none" points="1176.11,1423.18 1176.11,47.2441 "/>
<polyline clip-path="url(#clip752)" style="stroke:#000000; stroke-linecap:round; stroke-linejoin:round; stroke-width:2; stroke-opacity:0.1; fill:none" points="1604.44,1423.18 1604.44,47.2441 "/>
<polyline clip-path="url(#clip752)" style="stroke:#000000; stroke-linecap:round; stroke-linejoin:round; stroke-width:2; stroke-opacity:0.1; fill:none" points="2032.77,1423.18 2032.77,47.2441 "/>
<polyline clip-path="url(#clip750)" style="stroke:#000000; stroke-linecap:round; stroke-linejoin:round; stroke-width:4; stroke-opacity:1; fill:none" points="276.876,1423.18 2083.91,1423.18 "/>
<polyline clip-path="url(#clip750)" style="stroke:#000000; stroke-linecap:round; stroke-linejoin:round; stroke-width:4; stroke-opacity:1; fill:none" points="319.451,1423.18 319.451,1404.28 "/>
<polyline clip-path="url(#clip750)" style="stroke:#000000; stroke-linecap:round; stroke-linejoin:round; stroke-width:4; stroke-opacity:1; fill:none" points="747.78,1423.18 747.78,1404.28 "/>
<polyline clip-path="url(#clip750)" style="stroke:#000000; stroke-linecap:round; stroke-linejoin:round; stroke-width:4; stroke-opacity:1; fill:none" points="1176.11,1423.18 1176.11,1404.28 "/>
<polyline clip-path="url(#clip750)" style="stroke:#000000; stroke-linecap:round; stroke-linejoin:round; stroke-width:4; stroke-opacity:1; fill:none" points="1604.44,1423.18 1604.44,1404.28 "/>
<polyline clip-path="url(#clip750)" style="stroke:#000000; stroke-linecap:round; stroke-linejoin:round; stroke-width:4; stroke-opacity:1; fill:none" points="2032.77,1423.18 2032.77,1404.28 "/>
<path clip-path="url(#clip750)" d="M319.451 1454.1 Q315.84 1454.1 314.012 1457.66 Q312.206 1461.2 312.206 1468.33 Q312.206 1475.44 314.012 1479.01 Q315.84 1482.55 319.451 1482.55 Q323.086 1482.55 324.891 1479.01 Q326.72 1475.44 326.72 1468.33 Q326.72 1461.2 324.891 1457.66 Q323.086 1454.1 319.451 1454.1 M319.451 1450.39 Q325.262 1450.39 328.317 1455 Q331.396 1459.58 331.396 1468.33 Q331.396 1477.06 328.317 1481.67 Q325.262 1486.25 319.451 1486.25 Q313.641 1486.25 310.563 1481.67 Q307.507 1477.06 307.507 1468.33 Q307.507 1459.58 310.563 1455 Q313.641 1450.39 319.451 1450.39 Z" fill="#000000" fill-rule="nonzero" fill-opacity="1" /><path clip-path="url(#clip750)" d="M722.479 1451.02 L740.836 1451.02 L740.836 1454.96 L726.762 1454.96 L726.762 1463.43 Q727.78 1463.08 728.799 1462.92 Q729.817 1462.73 730.836 1462.73 Q736.623 1462.73 740.002 1465.9 Q743.382 1469.08 743.382 1474.49 Q743.382 1480.07 739.91 1483.17 Q736.438 1486.25 730.118 1486.25 Q727.942 1486.25 725.674 1485.88 Q723.428 1485.51 721.021 1484.77 L721.021 1480.07 Q723.104 1481.2 725.327 1481.76 Q727.549 1482.32 730.026 1482.32 Q734.03 1482.32 736.368 1480.21 Q738.706 1478.1 738.706 1474.49 Q738.706 1470.88 736.368 1468.77 Q734.03 1466.67 730.026 1466.67 Q728.151 1466.67 726.276 1467.08 Q724.424 1467.5 722.479 1468.38 L722.479 1451.02 Z" fill="#000000" fill-rule="nonzero" fill-opacity="1" /><path clip-path="url(#clip750)" d="M762.595 1454.1 Q758.984 1454.1 757.155 1457.66 Q755.35 1461.2 755.35 1468.33 Q755.35 1475.44 757.155 1479.01 Q758.984 1482.55 762.595 1482.55 Q766.229 1482.55 768.035 1479.01 Q769.863 1475.44 769.863 1468.33 Q769.863 1461.2 768.035 1457.66 Q766.229 1454.1 762.595 1454.1 M762.595 1450.39 Q768.405 1450.39 771.461 1455 Q774.539 1459.58 774.539 1468.33 Q774.539 1477.06 771.461 1481.67 Q768.405 1486.25 762.595 1486.25 Q756.785 1486.25 753.706 1481.67 Q750.651 1477.06 750.651 1468.33 Q750.651 1459.58 753.706 1455 Q756.785 1450.39 762.595 1450.39 Z" fill="#000000" fill-rule="nonzero" fill-opacity="1" /><path clip-path="url(#clip750)" d="M1135.72 1481.64 L1143.35 1481.64 L1143.35 1455.28 L1135.04 1456.95 L1135.04 1452.69 L1143.31 1451.02 L1147.98 1451.02 L1147.98 1481.64 L1155.62 1481.64 L1155.62 1485.58 L1135.72 1485.58 L1135.72 1481.64 Z" fill="#000000" fill-rule="nonzero" fill-opacity="1" /><path clip-path="url(#clip750)" d="M1175.07 1454.1 Q1171.46 1454.1 1169.63 1457.66 Q1167.82 1461.2 1167.82 1468.33 Q1167.82 1475.44 1169.63 1479.01 Q1171.46 1482.55 1175.07 1482.55 Q1178.7 1482.55 1180.51 1479.01 Q1182.34 1475.44 1182.34 1468.33 Q1182.34 1461.2 1180.51 1457.66 Q1178.7 1454.1 1175.07 1454.1 M1175.07 1450.39 Q1180.88 1450.39 1183.93 1455 Q1187.01 1459.58 1187.01 1468.33 Q1187.01 1477.06 1183.93 1481.67 Q1180.88 1486.25 1175.07 1486.25 Q1169.26 1486.25 1166.18 1481.67 Q1163.12 1477.06 1163.12 1468.33 Q1163.12 1459.58 1166.18 1455 Q1169.26 1450.39 1175.07 1450.39 Z" fill="#000000" fill-rule="nonzero" fill-opacity="1" /><path clip-path="url(#clip750)" d="M1205.23 1454.1 Q1201.62 1454.1 1199.79 1457.66 Q1197.98 1461.2 1197.98 1468.33 Q1197.98 1475.44 1199.79 1479.01 Q1201.62 1482.55 1205.23 1482.55 Q1208.86 1482.55 1210.67 1479.01 Q1212.5 1475.44 1212.5 1468.33 Q1212.5 1461.2 1210.67 1457.66 Q1208.86 1454.1 1205.23 1454.1 M1205.23 1450.39 Q1211.04 1450.39 1214.09 1455 Q1217.17 1459.58 1217.17 1468.33 Q1217.17 1477.06 1214.09 1481.67 Q1211.04 1486.25 1205.23 1486.25 Q1199.42 1486.25 1196.34 1481.67 Q1193.28 1477.06 1193.28 1468.33 Q1193.28 1459.58 1196.34 1455 Q1199.42 1450.39 1205.23 1450.39 Z" fill="#000000" fill-rule="nonzero" fill-opacity="1" /><path clip-path="url(#clip750)" d="M1564.04 1481.64 L1571.68 1481.64 L1571.68 1455.28 L1563.37 1456.95 L1563.37 1452.69 L1571.64 1451.02 L1576.31 1451.02 L1576.31 1481.64 L1583.95 1481.64 L1583.95 1485.58 L1564.04 1485.58 L1564.04 1481.64 Z" fill="#000000" fill-rule="nonzero" fill-opacity="1" /><path clip-path="url(#clip750)" d="M1593.44 1451.02 L1611.8 1451.02 L1611.8 1454.96 L1597.72 1454.96 L1597.72 1463.43 Q1598.74 1463.08 1599.76 1462.92 Q1600.78 1462.73 1601.8 1462.73 Q1607.59 1462.73 1610.97 1465.9 Q1614.35 1469.08 1614.35 1474.49 Q1614.35 1480.07 1610.87 1483.17 Q1607.4 1486.25 1601.08 1486.25 Q1598.91 1486.25 1596.64 1485.88 Q1594.39 1485.51 1591.98 1484.77 L1591.98 1480.07 Q1594.07 1481.2 1596.29 1481.76 Q1598.51 1482.32 1600.99 1482.32 Q1604.99 1482.32 1607.33 1480.21 Q1609.67 1478.1 1609.67 1474.49 Q1609.67 1470.88 1607.33 1468.77 Q1604.99 1466.67 1600.99 1466.67 Q1599.11 1466.67 1597.24 1467.08 Q1595.39 1467.5 1593.44 1468.38 L1593.44 1451.02 Z" fill="#000000" fill-rule="nonzero" fill-opacity="1" /><path clip-path="url(#clip750)" d="M1633.56 1454.1 Q1629.95 1454.1 1628.12 1457.66 Q1626.31 1461.2 1626.31 1468.33 Q1626.31 1475.44 1628.12 1479.01 Q1629.95 1482.55 1633.56 1482.55 Q1637.19 1482.55 1639 1479.01 Q1640.83 1475.44 1640.83 1468.33 Q1640.83 1461.2 1639 1457.66 Q1637.19 1454.1 1633.56 1454.1 M1633.56 1450.39 Q1639.37 1450.39 1642.42 1455 Q1645.5 1459.58 1645.5 1468.33 Q1645.5 1477.06 1642.42 1481.67 Q1639.37 1486.25 1633.56 1486.25 Q1627.75 1486.25 1624.67 1481.67 Q1621.61 1477.06 1621.61 1468.33 Q1621.61 1459.58 1624.67 1455 Q1627.75 1450.39 1633.56 1450.39 Z" fill="#000000" fill-rule="nonzero" fill-opacity="1" /><path clip-path="url(#clip750)" d="M1996.46 1481.64 L2012.78 1481.64 L2012.78 1485.58 L1990.83 1485.58 L1990.83 1481.64 Q1993.5 1478.89 1998.08 1474.26 Q2002.69 1469.61 2003.87 1468.27 Q2006.11 1465.74 2006.99 1464.01 Q2007.89 1462.25 2007.89 1460.56 Q2007.89 1457.8 2005.95 1456.07 Q2004.03 1454.33 2000.93 1454.33 Q1998.73 1454.33 1996.27 1455.09 Q1993.84 1455.86 1991.07 1457.41 L1991.07 1452.69 Q1993.89 1451.55 1996.34 1450.97 Q1998.8 1450.39 2000.83 1450.39 Q2006.2 1450.39 2009.4 1453.08 Q2012.59 1455.77 2012.59 1460.26 Q2012.59 1462.39 2011.78 1464.31 Q2011 1466.2 2008.89 1468.8 Q2008.31 1469.47 2005.21 1472.69 Q2002.11 1475.88 1996.46 1481.64 Z" fill="#000000" fill-rule="nonzero" fill-opacity="1" /><path clip-path="url(#clip750)" d="M2032.59 1454.1 Q2028.98 1454.1 2027.15 1457.66 Q2025.35 1461.2 2025.35 1468.33 Q2025.35 1475.44 2027.15 1479.01 Q2028.98 1482.55 2032.59 1482.55 Q2036.23 1482.55 2038.03 1479.01 Q2039.86 1475.44 2039.86 1468.33 Q2039.86 1461.2 2038.03 1457.66 Q2036.23 1454.1 2032.59 1454.1 M2032.59 1450.39 Q2038.4 1450.39 2041.46 1455 Q2044.54 1459.58 2044.54 1468.33 Q2044.54 1477.06 2041.46 1481.67 Q2038.4 1486.25 2032.59 1486.25 Q2026.78 1486.25 2023.7 1481.67 Q2020.65 1477.06 2020.65 1468.33 Q2020.65 1459.58 2023.7 1455 Q2026.78 1450.39 2032.59 1450.39 Z" fill="#000000" fill-rule="nonzero" fill-opacity="1" /><path clip-path="url(#clip750)" d="M2062.75 1454.1 Q2059.14 1454.1 2057.32 1457.66 Q2055.51 1461.2 2055.51 1468.33 Q2055.51 1475.44 2057.32 1479.01 Q2059.14 1482.55 2062.75 1482.55 Q2066.39 1482.55 2068.19 1479.01 Q2070.02 1475.44 2070.02 1468.33 Q2070.02 1461.2 2068.19 1457.66 Q2066.39 1454.1 2062.75 1454.1 M2062.75 1450.39 Q2068.56 1450.39 2071.62 1455 Q2074.7 1459.58 2074.7 1468.33 Q2074.7 1477.06 2071.62 1481.67 Q2068.56 1486.25 2062.75 1486.25 Q2056.94 1486.25 2053.87 1481.67 Q2050.81 1477.06 2050.81 1468.33 Q2050.81 1459.58 2053.87 1455 Q2056.94 1450.39 2062.75 1450.39 Z" fill="#000000" fill-rule="nonzero" fill-opacity="1" /><path clip-path="url(#clip750)" d="M878.164 1532.4 L884.021 1532.4 L884.021 1568.04 L878.164 1568.04 L878.164 1532.4 M878.164 1518.52 L884.021 1518.52 L884.021 1525.93 L878.164 1525.93 L878.164 1518.52 Z" fill="#000000" fill-rule="nonzero" fill-opacity="1" /><path clip-path="url(#clip750)" d="M925.907 1546.53 L925.907 1568.04 L920.051 1568.04 L920.051 1546.72 Q920.051 1541.66 918.077 1539.14 Q916.104 1536.63 912.157 1536.63 Q907.415 1536.63 904.678 1539.65 Q901.94 1542.68 901.94 1547.9 L901.94 1568.04 L896.052 1568.04 L896.052 1532.4 L901.94 1532.4 L901.94 1537.93 Q904.041 1534.72 906.874 1533.13 Q909.738 1531.54 913.462 1531.54 Q919.605 1531.54 922.756 1535.36 Q925.907 1539.14 925.907 1546.53 Z" fill="#000000" fill-rule="nonzero" fill-opacity="1" /><path clip-path="url(#clip750)" d="M943.381 1522.27 L943.381 1532.4 L955.444 1532.4 L955.444 1536.95 L943.381 1536.95 L943.381 1556.3 Q943.381 1560.66 944.559 1561.9 Q945.768 1563.14 949.428 1563.14 L955.444 1563.14 L955.444 1568.04 L949.428 1568.04 Q942.649 1568.04 940.071 1565.53 Q937.493 1562.98 937.493 1556.3 L937.493 1536.95 L933.196 1536.95 L933.196 1532.4 L937.493 1532.4 L937.493 1522.27 L943.381 1522.27 Z" fill="#000000" fill-rule="nonzero" fill-opacity="1" /><path clip-path="url(#clip750)" d="M993.638 1548.76 L993.638 1551.62 L966.711 1551.62 Q967.093 1557.67 970.34 1560.85 Q973.618 1564 979.443 1564 Q982.817 1564 985.968 1563.17 Q989.151 1562.35 992.27 1560.69 L992.27 1566.23 Q989.119 1567.57 985.809 1568.27 Q982.498 1568.97 979.093 1568.97 Q970.563 1568.97 965.566 1564 Q960.6 1559.04 960.6 1550.57 Q960.6 1541.82 965.311 1536.69 Q970.053 1531.54 978.074 1531.54 Q985.267 1531.54 989.437 1536.18 Q993.638 1540.8 993.638 1548.76 M987.782 1547.04 Q987.718 1542.23 985.076 1539.37 Q982.467 1536.5 978.138 1536.5 Q973.236 1536.5 970.276 1539.27 Q967.348 1542.04 966.902 1547.07 L987.782 1547.04 Z" fill="#000000" fill-rule="nonzero" fill-opacity="1" /><path clip-path="url(#clip750)" d="M1023.91 1537.87 Q1022.92 1537.3 1021.74 1537.04 Q1020.6 1536.76 1019.2 1536.76 Q1014.23 1536.76 1011.56 1540 Q1008.92 1543.22 1008.92 1549.27 L1008.92 1568.04 L1003.03 1568.04 L1003.03 1532.4 L1008.92 1532.4 L1008.92 1537.93 Q1010.76 1534.69 1013.72 1533.13 Q1016.68 1531.54 1020.92 1531.54 Q1021.52 1531.54 1022.25 1531.63 Q1022.98 1531.7 1023.88 1531.85 L1023.91 1537.87 Z" fill="#000000" fill-rule="nonzero" fill-opacity="1" /><path clip-path="url(#clip750)" d="M1035.72 1562.7 L1035.72 1581.6 L1029.83 1581.6 L1029.83 1532.4 L1035.72 1532.4 L1035.72 1537.81 Q1037.56 1534.62 1040.36 1533.1 Q1043.2 1531.54 1047.11 1531.54 Q1053.6 1531.54 1057.65 1536.69 Q1061.72 1541.85 1061.72 1550.25 Q1061.72 1558.65 1057.65 1563.81 Q1053.6 1568.97 1047.11 1568.97 Q1043.2 1568.97 1040.36 1567.44 Q1037.56 1565.88 1035.72 1562.7 M1055.64 1550.25 Q1055.64 1543.79 1052.97 1540.13 Q1050.32 1536.44 1045.68 1536.44 Q1041.03 1536.44 1038.36 1540.13 Q1035.72 1543.79 1035.72 1550.25 Q1035.72 1556.71 1038.36 1560.4 Q1041.03 1564.07 1045.68 1564.07 Q1050.32 1564.07 1052.97 1560.4 Q1055.64 1556.71 1055.64 1550.25 Z" fill="#000000" fill-rule="nonzero" fill-opacity="1" /><path clip-path="url(#clip750)" d="M1085.24 1536.5 Q1080.53 1536.5 1077.79 1540.19 Q1075.06 1543.85 1075.06 1550.25 Q1075.06 1556.65 1077.76 1560.34 Q1080.5 1564 1085.24 1564 Q1089.92 1564 1092.66 1560.31 Q1095.39 1556.62 1095.39 1550.25 Q1095.39 1543.92 1092.66 1540.23 Q1089.92 1536.5 1085.24 1536.5 M1085.24 1531.54 Q1092.88 1531.54 1097.24 1536.5 Q1101.6 1541.47 1101.6 1550.25 Q1101.6 1559 1097.24 1564 Q1092.88 1568.97 1085.24 1568.97 Q1077.57 1568.97 1073.21 1564 Q1068.88 1559 1068.88 1550.25 Q1068.88 1541.47 1073.21 1536.5 Q1077.57 1531.54 1085.24 1531.54 Z" fill="#000000" fill-rule="nonzero" fill-opacity="1" /><path clip-path="url(#clip750)" d="M1111.31 1518.52 L1117.16 1518.52 L1117.16 1568.04 L1111.31 1568.04 L1111.31 1518.52 Z" fill="#000000" fill-rule="nonzero" fill-opacity="1" /><path clip-path="url(#clip750)" d="M1145.62 1550.12 Q1138.52 1550.12 1135.78 1551.75 Q1133.05 1553.37 1133.05 1557.29 Q1133.05 1560.4 1135.08 1562.25 Q1137.15 1564.07 1140.69 1564.07 Q1145.56 1564.07 1148.48 1560.63 Q1151.44 1557.16 1151.44 1551.43 L1151.44 1550.12 L1145.62 1550.12 M1157.3 1547.71 L1157.3 1568.04 L1151.44 1568.04 L1151.44 1562.63 Q1149.44 1565.88 1146.45 1567.44 Q1143.46 1568.97 1139.13 1568.97 Q1133.65 1568.97 1130.41 1565.91 Q1127.19 1562.82 1127.19 1557.67 Q1127.19 1551.65 1131.2 1548.6 Q1135.24 1545.54 1143.23 1545.54 L1151.44 1545.54 L1151.44 1544.97 Q1151.44 1540.93 1148.77 1538.73 Q1146.13 1536.5 1141.32 1536.5 Q1138.27 1536.5 1135.37 1537.23 Q1132.47 1537.97 1129.8 1539.43 L1129.8 1534.02 Q1133.02 1532.78 1136.04 1532.17 Q1139.06 1531.54 1141.93 1531.54 Q1149.66 1531.54 1153.48 1535.55 Q1157.3 1539.56 1157.3 1547.71 Z" fill="#000000" fill-rule="nonzero" fill-opacity="1" /><path clip-path="url(#clip750)" d="M1175.16 1522.27 L1175.16 1532.4 L1187.22 1532.4 L1187.22 1536.95 L1175.16 1536.95 L1175.16 1556.3 Q1175.16 1560.66 1176.33 1561.9 Q1177.54 1563.14 1181.2 1563.14 L1187.22 1563.14 L1187.22 1568.04 L1181.2 1568.04 Q1174.42 1568.04 1171.85 1565.53 Q1169.27 1562.98 1169.27 1556.3 L1169.27 1536.95 L1164.97 1536.95 L1164.97 1532.4 L1169.27 1532.4 L1169.27 1522.27 L1175.16 1522.27 Z" fill="#000000" fill-rule="nonzero" fill-opacity="1" /><path clip-path="url(#clip750)" d="M1194.92 1532.4 L1200.78 1532.4 L1200.78 1568.04 L1194.92 1568.04 L1194.92 1532.4 M1194.92 1518.52 L1200.78 1518.52 L1200.78 1525.93 L1194.92 1525.93 L1194.92 1518.52 Z" fill="#000000" fill-rule="nonzero" fill-opacity="1" /><path clip-path="url(#clip750)" d="M1226.85 1536.5 Q1222.14 1536.5 1219.4 1540.19 Q1216.66 1543.85 1216.66 1550.25 Q1216.66 1556.65 1219.37 1560.34 Q1222.1 1564 1226.85 1564 Q1231.52 1564 1234.26 1560.31 Q1237 1556.62 1237 1550.25 Q1237 1543.92 1234.26 1540.23 Q1231.52 1536.5 1226.85 1536.5 M1226.85 1531.54 Q1234.48 1531.54 1238.85 1536.5 Q1243.21 1541.47 1243.21 1550.25 Q1243.21 1559 1238.85 1564 Q1234.48 1568.97 1226.85 1568.97 Q1219.18 1568.97 1214.81 1564 Q1210.49 1559 1210.49 1550.25 Q1210.49 1541.47 1214.81 1536.5 Q1219.18 1531.54 1226.85 1531.54 Z" fill="#000000" fill-rule="nonzero" fill-opacity="1" /><path clip-path="url(#clip750)" d="M1282.55 1546.53 L1282.55 1568.04 L1276.69 1568.04 L1276.69 1546.72 Q1276.69 1541.66 1274.72 1539.14 Q1272.74 1536.63 1268.8 1536.63 Q1264.05 1536.63 1261.32 1539.65 Q1258.58 1542.68 1258.58 1547.9 L1258.58 1568.04 L1252.69 1568.04 L1252.69 1532.4 L1258.58 1532.4 L1258.58 1537.93 Q1260.68 1534.72 1263.51 1533.13 Q1266.38 1531.54 1270.1 1531.54 Q1276.24 1531.54 1279.39 1535.36 Q1282.55 1539.14 1282.55 1546.53 Z" fill="#000000" fill-rule="nonzero" fill-opacity="1" /><path clip-path="url(#clip750)" d="M1328.76 1536.5 Q1324.05 1536.5 1321.31 1540.19 Q1318.58 1543.85 1318.58 1550.25 Q1318.58 1556.65 1321.28 1560.34 Q1324.02 1564 1328.76 1564 Q1333.44 1564 1336.18 1560.31 Q1338.91 1556.62 1338.91 1550.25 Q1338.91 1543.92 1336.18 1540.23 Q1333.44 1536.5 1328.76 1536.5 M1328.76 1531.54 Q1336.4 1531.54 1340.76 1536.5 Q1345.12 1541.47 1345.12 1550.25 Q1345.12 1559 1340.76 1564 Q1336.4 1568.97 1328.76 1568.97 Q1321.09 1568.97 1316.73 1564 Q1312.4 1559 1312.4 1550.25 Q1312.4 1541.47 1316.73 1536.5 Q1321.09 1531.54 1328.76 1531.54 Z" fill="#000000" fill-rule="nonzero" fill-opacity="1" /><path clip-path="url(#clip750)" d="M1375.49 1537.87 Q1374.5 1537.3 1373.32 1537.04 Q1372.18 1536.76 1370.77 1536.76 Q1365.81 1536.76 1363.14 1540 Q1360.49 1543.22 1360.49 1549.27 L1360.49 1568.04 L1354.61 1568.04 L1354.61 1532.4 L1360.49 1532.4 L1360.49 1537.93 Q1362.34 1534.69 1365.3 1533.13 Q1368.26 1531.54 1372.49 1531.54 Q1373.1 1531.54 1373.83 1531.63 Q1374.56 1531.7 1375.45 1531.85 L1375.49 1537.87 Z" fill="#000000" fill-rule="nonzero" fill-opacity="1" /><path clip-path="url(#clip750)" d="M1403.94 1537.81 L1403.94 1518.52 L1409.8 1518.52 L1409.8 1568.04 L1403.94 1568.04 L1403.94 1562.7 Q1402.09 1565.88 1399.26 1567.44 Q1396.46 1568.97 1392.51 1568.97 Q1386.05 1568.97 1381.98 1563.81 Q1377.94 1558.65 1377.94 1550.25 Q1377.94 1541.85 1381.98 1536.69 Q1386.05 1531.54 1392.51 1531.54 Q1396.46 1531.54 1399.26 1533.1 Q1402.09 1534.62 1403.94 1537.81 M1383.98 1550.25 Q1383.98 1556.71 1386.63 1560.4 Q1389.3 1564.07 1393.95 1564.07 Q1398.59 1564.07 1401.27 1560.4 Q1403.94 1556.71 1403.94 1550.25 Q1403.94 1543.79 1401.27 1540.13 Q1398.59 1536.44 1393.95 1536.44 Q1389.3 1536.44 1386.63 1540.13 Q1383.98 1543.79 1383.98 1550.25 Z" fill="#000000" fill-rule="nonzero" fill-opacity="1" /><path clip-path="url(#clip750)" d="M1452.35 1548.76 L1452.35 1551.62 L1425.42 1551.62 Q1425.81 1557.67 1429.05 1560.85 Q1432.33 1564 1438.16 1564 Q1441.53 1564 1444.68 1563.17 Q1447.86 1562.35 1450.98 1560.69 L1450.98 1566.23 Q1447.83 1567.57 1444.52 1568.27 Q1441.21 1568.97 1437.81 1568.97 Q1429.28 1568.97 1424.28 1564 Q1419.31 1559.04 1419.31 1550.57 Q1419.31 1541.82 1424.02 1536.69 Q1428.77 1531.54 1436.79 1531.54 Q1443.98 1531.54 1448.15 1536.18 Q1452.35 1540.8 1452.35 1548.76 M1446.49 1547.04 Q1446.43 1542.23 1443.79 1539.37 Q1441.18 1536.5 1436.85 1536.5 Q1431.95 1536.5 1428.99 1539.27 Q1426.06 1542.04 1425.62 1547.07 L1446.49 1547.04 Z" fill="#000000" fill-rule="nonzero" fill-opacity="1" /><path clip-path="url(#clip750)" d="M1482.62 1537.87 Q1481.63 1537.3 1480.46 1537.04 Q1479.31 1536.76 1477.91 1536.76 Q1472.94 1536.76 1470.27 1540 Q1467.63 1543.22 1467.63 1549.27 L1467.63 1568.04 L1461.74 1568.04 L1461.74 1532.4 L1467.63 1532.4 L1467.63 1537.93 Q1469.47 1534.69 1472.43 1533.13 Q1475.4 1531.54 1479.63 1531.54 Q1480.23 1531.54 1480.97 1531.63 Q1481.7 1531.7 1482.59 1531.85 L1482.62 1537.87 Z" fill="#000000" fill-rule="nonzero" fill-opacity="1" /><polyline clip-path="url(#clip750)" style="stroke:#000000; stroke-linecap:round; stroke-linejoin:round; stroke-width:4; stroke-opacity:1; fill:none" points="276.876,1423.18 276.876,47.2441 "/>
<polyline clip-path="url(#clip750)" style="stroke:#000000; stroke-linecap:round; stroke-linejoin:round; stroke-width:4; stroke-opacity:1; fill:none" points="276.876,926.236 295.773,926.236 "/>
<polyline clip-path="url(#clip750)" style="stroke:#000000; stroke-linecap:round; stroke-linejoin:round; stroke-width:4; stroke-opacity:1; fill:none" points="276.876,47.2441 295.773,47.2441 "/>
<path clip-path="url(#clip750)" d="M114.931 946.029 L122.57 946.029 L122.57 919.663 L114.26 921.33 L114.26 917.071 L122.524 915.404 L127.2 915.404 L127.2 946.029 L134.839 946.029 L134.839 949.964 L114.931 949.964 L114.931 946.029 Z" fill="#000000" fill-rule="nonzero" fill-opacity="1" /><path clip-path="url(#clip750)" d="M154.283 918.483 Q150.672 918.483 148.843 922.047 Q147.038 925.589 147.038 932.719 Q147.038 939.825 148.843 943.39 Q150.672 946.932 154.283 946.932 Q157.917 946.932 159.723 943.39 Q161.552 939.825 161.552 932.719 Q161.552 925.589 159.723 922.047 Q157.917 918.483 154.283 918.483 M154.283 914.779 Q160.093 914.779 163.149 919.385 Q166.227 923.969 166.227 932.719 Q166.227 941.445 163.149 946.052 Q160.093 950.635 154.283 950.635 Q148.473 950.635 145.394 946.052 Q142.339 941.445 142.339 932.719 Q142.339 923.969 145.394 919.385 Q148.473 914.779 154.283 914.779 Z" fill="#000000" fill-rule="nonzero" fill-opacity="1" /><path clip-path="url(#clip750)" d="M166.227 908.88 L190.339 908.88 L190.339 912.078 L166.227 912.078 L166.227 908.88 Z" fill="#000000" fill-rule="nonzero" fill-opacity="1" /><path clip-path="url(#clip750)" d="M199.197 919.356 L205.404 919.356 L205.404 897.934 L198.652 899.288 L198.652 895.828 L205.366 894.474 L209.166 894.474 L209.166 919.356 L215.372 919.356 L215.372 922.554 L199.197 922.554 L199.197 919.356 Z" fill="#000000" fill-rule="nonzero" fill-opacity="1" /><path clip-path="url(#clip750)" d="M231.171 896.975 Q228.237 896.975 226.751 899.871 Q225.284 902.749 225.284 908.542 Q225.284 914.316 226.751 917.212 Q228.237 920.09 231.171 920.09 Q234.124 920.09 235.591 917.212 Q237.076 914.316 237.076 908.542 Q237.076 902.749 235.591 899.871 Q234.124 896.975 231.171 896.975 M231.171 893.966 Q235.891 893.966 238.374 897.708 Q240.876 901.432 240.876 908.542 Q240.876 915.632 238.374 919.375 Q235.891 923.099 231.171 923.099 Q226.45 923.099 223.949 919.375 Q221.466 915.632 221.466 908.542 Q221.466 901.432 223.949 897.708 Q226.45 893.966 231.171 893.966 Z" fill="#000000" fill-rule="nonzero" fill-opacity="1" /><path clip-path="url(#clip750)" d="M170.17 67.0365 L177.809 67.0365 L177.809 40.6709 L169.499 42.3376 L169.499 38.0784 L177.762 36.4117 L182.438 36.4117 L182.438 67.0365 L190.077 67.0365 L190.077 70.9717 L170.17 70.9717 L170.17 67.0365 Z" fill="#000000" fill-rule="nonzero" fill-opacity="1" /><path clip-path="url(#clip750)" d="M209.522 39.4904 Q205.91 39.4904 204.082 43.0552 Q202.276 46.5968 202.276 53.7264 Q202.276 60.8329 204.082 64.3977 Q205.91 67.9393 209.522 67.9393 Q213.156 67.9393 214.961 64.3977 Q216.79 60.8329 216.79 53.7264 Q216.79 46.5968 214.961 43.0552 Q213.156 39.4904 209.522 39.4904 M209.522 35.7867 Q215.332 35.7867 218.387 40.3932 Q221.466 44.9765 221.466 53.7264 Q221.466 62.4532 218.387 67.0597 Q215.332 71.643 209.522 71.643 Q203.711 71.643 200.633 67.0597 Q197.577 62.4532 197.577 53.7264 Q197.577 44.9765 200.633 40.3932 Q203.711 35.7867 209.522 35.7867 Z" fill="#000000" fill-rule="nonzero" fill-opacity="1" /><path clip-path="url(#clip750)" d="M231.171 17.9827 Q228.237 17.9827 226.751 20.8791 Q225.284 23.7567 225.284 29.5495 Q225.284 35.3235 226.751 38.2199 Q228.237 41.0975 231.171 41.0975 Q234.124 41.0975 235.591 38.2199 Q237.076 35.3235 237.076 29.5495 Q237.076 23.7567 235.591 20.8791 Q234.124 17.9827 231.171 17.9827 M231.171 14.9735 Q235.891 14.9735 238.374 18.7162 Q240.876 22.4402 240.876 29.5495 Q240.876 36.64 238.374 40.3828 Q235.891 44.1067 231.171 44.1067 Q226.45 44.1067 223.949 40.3828 Q221.466 36.64 221.466 29.5495 Q221.466 22.4402 223.949 18.7162 Q226.45 14.9735 231.171 14.9735 Z" fill="#000000" fill-rule="nonzero" fill-opacity="1" /><path clip-path="url(#clip750)" d="M35.1993 853.184 Q31.2526 850.988 29.3747 847.933 Q27.4968 844.877 27.4968 840.739 Q27.4968 835.169 31.4117 832.146 Q35.2948 829.122 42.4881 829.122 L64.0042 829.122 L64.0042 835.01 L42.679 835.01 Q37.5546 835.01 35.072 836.825 Q32.5894 838.639 32.5894 842.363 Q32.5894 846.914 35.6131 849.556 Q38.6368 852.198 43.8567 852.198 L64.0042 852.198 L64.0042 858.086 L42.679 858.086 Q37.5228 858.086 35.072 859.9 Q32.5894 861.714 32.5894 865.502 Q32.5894 869.99 35.6449 872.632 Q38.6686 875.273 43.8567 875.273 L64.0042 875.273 L64.0042 881.162 L28.3562 881.162 L28.3562 875.273 L33.8944 875.273 Q30.616 873.268 29.0564 870.467 Q27.4968 867.666 27.4968 863.815 Q27.4968 859.932 29.4702 857.227 Q31.4436 854.489 35.1993 853.184 Z" fill="#000000" fill-rule="nonzero" fill-opacity="1" /><path clip-path="url(#clip750)" d="M46.0847 801.24 Q46.0847 808.338 47.7079 811.075 Q49.3312 813.813 53.2461 813.813 Q56.3653 813.813 58.2114 811.776 Q60.0256 809.707 60.0256 806.174 Q60.0256 801.304 56.5881 798.376 Q53.1188 795.416 47.3897 795.416 L46.0847 795.416 L46.0847 801.24 M43.6657 789.559 L64.0042 789.559 L64.0042 795.416 L58.5933 795.416 Q61.8398 797.421 63.3994 800.413 Q64.9272 803.405 64.9272 807.733 Q64.9272 813.208 61.8716 816.454 Q58.7843 819.669 53.6281 819.669 Q47.6125 819.669 44.5569 815.659 Q41.5014 811.616 41.5014 803.627 L41.5014 795.416 L40.9285 795.416 Q36.8862 795.416 34.6901 798.089 Q32.4621 800.731 32.4621 805.537 Q32.4621 808.593 33.1941 811.489 Q33.9262 814.385 35.3903 817.059 L29.9795 817.059 Q28.7381 813.844 28.1334 810.821 Q27.4968 807.797 27.4968 804.932 Q27.4968 797.198 31.5072 793.379 Q35.5176 789.559 43.6657 789.559 Z" fill="#000000" fill-rule="nonzero" fill-opacity="1" /><path clip-path="url(#clip750)" d="M28.3562 747.864 L45.7028 760.754 L64.0042 747.195 L64.0042 754.102 L49.9996 764.478 L64.0042 774.854 L64.0042 781.761 L45.3526 767.916 L28.3562 780.584 L28.3562 773.677 L41.0558 764.224 L28.3562 754.771 L28.3562 747.864 Z" fill="#000000" fill-rule="nonzero" fill-opacity="1" /><path clip-path="url(#clip750)" d="M44.7161 710.433 L47.5806 710.433 L47.5806 737.36 Q53.6281 736.978 56.8109 733.732 Q59.9619 730.454 59.9619 724.629 Q59.9619 721.255 59.1344 718.104 Q58.3069 714.921 56.6518 711.802 L62.1899 711.802 Q63.5267 714.953 64.227 718.263 Q64.9272 721.573 64.9272 724.979 Q64.9272 733.509 59.9619 738.506 Q54.9967 743.471 46.5303 743.471 Q37.7774 743.471 32.6531 738.761 Q27.4968 734.018 27.4968 725.998 Q27.4968 718.804 32.1438 714.635 Q36.7589 710.433 44.7161 710.433 M42.9973 716.29 Q38.1912 716.354 35.3266 718.995 Q32.4621 721.605 32.4621 725.934 Q32.4621 730.836 35.2312 733.796 Q38.0002 736.724 43.0292 737.169 L42.9973 716.29 Z" fill="#000000" fill-rule="nonzero" fill-opacity="1" /><path clip-path="url(#clip750)" d="M33.8307 680.165 Q33.2578 681.151 33.0032 682.329 Q32.7167 683.475 32.7167 684.875 Q32.7167 689.84 35.9632 692.514 Q39.1779 695.156 45.2253 695.156 L64.0042 695.156 L64.0042 701.044 L28.3562 701.044 L28.3562 695.156 L33.8944 695.156 Q30.6479 693.31 29.0883 690.35 Q27.4968 687.39 27.4968 683.156 Q27.4968 682.552 27.5923 681.82 Q27.656 681.088 27.8151 680.196 L33.8307 680.165 Z" fill="#000000" fill-rule="nonzero" fill-opacity="1" /><path clip-path="url(#clip750)" d="M33.8307 654.511 Q33.2578 655.497 33.0032 656.675 Q32.7167 657.821 32.7167 659.221 Q32.7167 664.187 35.9632 666.86 Q39.1779 669.502 45.2253 669.502 L64.0042 669.502 L64.0042 675.39 L28.3562 675.39 L28.3562 669.502 L33.8944 669.502 Q30.6479 667.656 29.0883 664.696 Q27.4968 661.736 27.4968 657.503 Q27.4968 656.898 27.5923 656.166 Q27.656 655.434 27.8151 654.543 L33.8307 654.511 Z" fill="#000000" fill-rule="nonzero" fill-opacity="1" /><path clip-path="url(#clip750)" d="M32.4621 635.987 Q32.4621 640.697 36.1542 643.434 Q39.8145 646.172 46.212 646.172 Q52.6095 646.172 56.3017 643.466 Q59.9619 640.729 59.9619 635.987 Q59.9619 631.308 56.2698 628.57 Q52.5777 625.833 46.212 625.833 Q39.8781 625.833 36.186 628.57 Q32.4621 631.308 32.4621 635.987 M27.4968 635.987 Q27.4968 628.348 32.4621 623.987 Q37.4273 619.627 46.212 619.627 Q54.9649 619.627 59.9619 623.987 Q64.9272 628.348 64.9272 635.987 Q64.9272 643.657 59.9619 648.018 Q54.9649 652.346 46.212 652.346 Q37.4273 652.346 32.4621 648.018 Q27.4968 643.657 27.4968 635.987 Z" fill="#000000" fill-rule="nonzero" fill-opacity="1" /><path clip-path="url(#clip750)" d="M33.8307 589.262 Q33.2578 590.249 33.0032 591.427 Q32.7167 592.572 32.7167 593.973 Q32.7167 598.938 35.9632 601.612 Q39.1779 604.253 45.2253 604.253 L64.0042 604.253 L64.0042 610.142 L28.3562 610.142 L28.3562 604.253 L33.8944 604.253 Q30.6479 602.407 29.0883 599.447 Q27.4968 596.487 27.4968 592.254 Q27.4968 591.649 27.5923 590.917 Q27.656 590.185 27.8151 589.294 L33.8307 589.262 Z" fill="#000000" fill-rule="nonzero" fill-opacity="1" /><polyline clip-path="url(#clip752)" style="stroke:#009af9; stroke-linecap:round; stroke-linejoin:round; stroke-width:16; stroke-opacity:1; fill:none" points="353.718,112.192 362.284,89.676 370.851,134.571 379.417,116.186 387.984,155.381 396.551,140.728 405.117,178.617 413.684,164.44 422.25,202.63 430.817,187.584 439.383,226.897 447.95,210.337 456.517,251.157 465.083,232.773 473.65,274.085 482.216,254.974 490.783,295.573 499.349,277.057 507.916,317.218 516.483,298.668 525.049,338.722 533.616,320.292 542.182,360.427 550.749,341.626 559.316,382.151 567.882,363.143 576.449,404.047 585.015,383.976 593.582,424.717 602.148,405.05 610.715,445.463 619.282,426.378 627.848,466.6 636.415,446.857 644.981,487.051 653.548,467.381 662.114,496.07 670.681,488.064 679.248,516.094 687.814,494.535 696.381,502.752 704.947,491.402 713.514,493.335 722.08,513.909 730.647,516.277 739.214,504.225 747.78,504.643 756.347,500.633 764.913,500.793 773.48,495.417 782.046,495.45 790.613,514.47 799.18,514.514 807.746,512.882 816.313,512.909 824.879,507.554 833.446,507.56 842.013,496.94 850.579,496.944 859.146,493.746 867.712,493.741 876.279,517.673 884.845,517.679 893.412,508.112 901.979,508.125 910.545,507.364 919.112,507.368 927.678,505.335 936.245,505.32 944.811,522.864 953.378,522.884 961.945,518.562 970.511,518.581 979.078,510.147 987.644,510.126 996.211,507.011 1004.78,507.012 1013.34,505.6 1021.91,505.604 1030.48,499.748 1039.04,499.749 1047.61,497.545 1056.18,497.536 1064.74,514.448 1073.31,514.434 1081.88,512.146 1090.44,521.659 1099.01,519.098 1107.58,519.079 1116.14,511.876 1124.71,511.873 1133.28,510.159 1141.84,510.166 1150.41,508.098 1158.98,508.1 1167.54,505.015 1176.11,505.008 1184.68,520.055 1193.24,520.039 1201.81,514.474 1210.38,514.456 1218.94,514.201 1227.51,514.204 1236.07,511.944 1244.64,511.941 1253.21,510.896 1261.77,510.884 1270.34,508.898 1278.91,508.904 1287.47,506.151 1296.04,506.146 1304.61,501.046 1313.17,501.045 1321.74,500.206 1330.31,500.201 1338.87,498.403 1347.44,498.4 1356.01,496.59 1364.57,496.589 1373.14,494.942 1381.71,494.938 1390.27,509.095 1398.84,509.098 1407.41,515.401 1415.97,515.4 1424.54,513.737 1433.11,513.742 1441.67,511.238 1450.24,511.233 1458.81,510.551 1467.37,510.559 1475.94,509.646 1484.51,509.665 1493.07,507.674 1501.64,507.681 1510.21,502.558 1518.77,502.562 1527.34,501.304 1535.91,501.305 1544.47,493.338 1553.04,493.34 1561.6,492.844 1570.17,492.847 1578.74,490.878 1587.3,490.88 1595.87,489.878 1604.44,489.879 1613,507.683 1621.57,507.686 1630.14,508.418 1638.7,508.413 1647.27,509.591 1655.84,509.601 1664.4,506.616 1672.97,506.629 1681.54,505.139 1690.1,505.136 1698.67,503.651 1707.24,503.967 1715.8,502.868 1724.37,502.878 1732.94,501.954 1741.5,501.953 1750.07,499.943 1758.64,499.936 1767.2,499.583 1775.77,499.585 1784.34,498.9 1792.9,498.9 1801.47,497.289 1810.04,497.287 1818.6,510.961 1827.17,510.95 1835.74,495.901 1844.3,495.904 1852.87,509.419 1861.44,509.426 1870,508.593 1878.57,508.581 1887.13,507.962 1895.7,507.964 1904.27,509.185 1912.83,509.188 1921.4,504.468 1929.97,504.467 1938.53,501.668 1947.1,501.653 1955.67,502.642 1964.23,502.629 1972.8,501.202 1981.37,501.193 1989.93,500.5 1998.5,500.488 2007.07,498.593 2015.63,498.602 2024.2,498.871 2032.77,498.867 "/>
<polyline clip-path="url(#clip752)" style="stroke:#e26f46; stroke-linecap:round; stroke-linejoin:round; stroke-width:16; stroke-opacity:1; fill:none" points="353.718,112.192 362.284,98.7553 370.851,134.571 379.417,122.456 387.984,155.381 396.551,145.778 405.117,178.617 413.684,168.826 422.25,202.63 430.817,191.625 439.383,226.897 447.95,214.062 456.517,251.157 465.083,236.314 473.65,274.085 482.216,258.365 490.783,295.573 499.349,280.324 507.916,317.218 516.483,301.878 525.049,338.722 533.616,323.407 542.182,360.427 550.749,344.701 559.316,382.151 567.882,366.145 576.449,404.047 585.015,386.949 593.582,424.717 602.148,407.996 610.715,445.464 619.282,429.302 627.848,466.601 636.415,449.728 644.981,487.069 653.548,470.236 662.114,507.749 670.681,490.899 679.248,528.65 687.814,511.725 696.381,549.386 704.947,532.724 713.514,570.208 722.08,552.823 730.647,590.565 739.214,572.857 747.78,610.758 756.347,592.972 764.913,631.259 773.48,613.173 782.046,651.388 790.613,633.461 799.18,671.343 807.746,653.84 816.313,691.467 824.879,674.315 833.446,711.886 842.013,694.892 850.579,732.918 859.146,715.575 867.712,752.142 876.279,735.348 884.845,771.362 893.412,754.93 901.979,791.878 910.545,774.545 919.112,811.409 927.678,794.194 936.245,831.469 944.811,813.877 953.378,852.93 961.945,833.596 970.511,871.125 979.078,853.352 987.644,891.456 996.211,873.144 1004.78,912.242 1013.34,892.975 1021.91,930.533 1030.48,912.845 1039.04,950.737 1047.61,932.755 1056.18,970.179 1064.74,952.708 1073.31,989.681 1081.88,972.704 1090.44,1009.9 1099.01,992.745 1107.58,1029.18 1116.14,1012.83 1124.71,1049.77 1133.28,1032.32 1141.84,1068.59 1150.41,1052.14 1158.98,1090.13 1167.54,1072.32 1176.11,1107.94 1184.68,1092.9 1193.24,1130.26 1201.81,1113.86 1210.38,1147.51 1218.94,1134.49 1227.51,1167.69 1236.07,1153.88 1244.64,1186.56 1253.21,1172.18 1261.77,1205.63 1270.34,1190.55 1278.91,1224.21 1287.47,1209.57 1296.04,1244.8 1304.61,1228.21 1313.17,1262.67 1321.74,1247.72 1330.31,1278.29 1338.87,1267.04 1347.44,1295.98 1356.01,1285.86 1364.57,1302.66 1373.14,1294.64 1381.71,1295.3 1390.27,1300.3 1398.84,1311.8 1407.41,1310.78 1415.97,1319.8 1424.54,1317.34 1433.11,1319.8 1441.67,1317.34 1450.24,1325.27 1458.81,1328.32 1467.37,1319.8 1475.94,1317.34 1484.51,1310.78 1493.07,1308.82 1501.64,1313.92 1510.21,1315.02 1518.77,1317.34 1527.34,1315.02 1535.91,1315.02 1544.47,1303.49 1553.04,1315.02 1561.6,1295.98 1570.17,1315.02 1578.74,1317.34 1587.3,1308.82 1595.87,1313.92 1604.44,1305.18 1613,1312.84 1621.57,1315.02 1630.14,1312.84 1638.7,1312.84 1647.27,1319.8 1655.84,1297.36 1664.4,1305.18 1672.97,1312.84 1681.54,1308.82 1690.1,1308.82 1698.67,1319.8 1707.24,1310.78 1715.8,1305.18 1724.37,1306.96 1732.94,1305.18 1741.5,1298.8 1750.07,1297.36 1758.64,1309.79 1767.2,1317.34 1775.77,1319.8 1784.34,1312.84 1792.9,1306.96 1801.47,1308.82 1810.04,1295.3 1818.6,1317.34 1827.17,1306.06 1835.74,1312.84 1844.3,1298.8 1852.87,1301.86 1861.44,1317.34 1870,1316.16 1878.57,1304.32 1887.13,1308.82 1895.7,1291.48 1904.27,1305.18 1912.83,1319.8 1921.4,1306.06 1929.97,1298.8 1938.53,1300.3 1947.1,1315.02 1955.67,1294.64 1964.23,1308.82 1972.8,1306.96 1981.37,1293.98 1989.93,1306.96 1998.5,1312.84 2007.07,1304.32 2015.63,1301.86 2024.2,1297.36 2032.77,1304.32 "/>
<path clip-path="url(#clip750)" d="M337.11 248.629 L744.872 248.629 L744.872 93.1086 L337.11 93.1086  Z" fill="#ffffff" fill-rule="evenodd" fill-opacity="1"/>
<polyline clip-path="url(#clip750)" style="stroke:#000000; stroke-linecap:round; stroke-linejoin:round; stroke-width:4; stroke-opacity:1; fill:none" points="337.11,248.629 744.872,248.629 744.872,93.1086 337.11,93.1086 337.11,248.629 "/>
<polyline clip-path="url(#clip750)" style="stroke:#009af9; stroke-linecap:round; stroke-linejoin:round; stroke-width:16; stroke-opacity:1; fill:none" points="357.188,144.949 477.657,144.949 "/>
<path clip-path="url(#clip750)" d="M518.082 141.28 Q519.679 138.409 521.902 137.044 Q524.124 135.678 527.133 135.678 Q531.184 135.678 533.383 138.525 Q535.582 141.349 535.582 146.581 L535.582 162.229 L531.3 162.229 L531.3 146.719 Q531.3 142.993 529.98 141.187 Q528.661 139.382 525.953 139.382 Q522.642 139.382 520.721 141.581 Q518.8 143.78 518.8 147.576 L518.8 162.229 L514.517 162.229 L514.517 146.719 Q514.517 142.969 513.198 141.187 Q511.879 139.382 509.124 139.382 Q505.86 139.382 503.939 141.604 Q502.018 143.803 502.018 147.576 L502.018 162.229 L497.735 162.229 L497.735 136.303 L502.018 136.303 L502.018 140.331 Q503.476 137.946 505.513 136.812 Q507.55 135.678 510.351 135.678 Q513.175 135.678 515.142 137.113 Q517.133 138.548 518.082 141.28 Z" fill="#000000" fill-rule="nonzero" fill-opacity="1" /><path clip-path="url(#clip750)" d="M554.124 139.289 Q550.698 139.289 548.707 141.974 Q546.716 144.636 546.716 149.289 Q546.716 153.942 548.684 156.627 Q550.675 159.289 554.124 159.289 Q557.527 159.289 559.517 156.604 Q561.508 153.918 561.508 149.289 Q561.508 144.682 559.517 141.997 Q557.527 139.289 554.124 139.289 M554.124 135.678 Q559.679 135.678 562.851 139.289 Q566.022 142.9 566.022 149.289 Q566.022 155.655 562.851 159.289 Q559.679 162.9 554.124 162.9 Q548.545 162.9 545.374 159.289 Q542.226 155.655 542.226 149.289 Q542.226 142.9 545.374 139.289 Q548.545 135.678 554.124 135.678 Z" fill="#000000" fill-rule="nonzero" fill-opacity="1" /><path clip-path="url(#clip750)" d="M594.633 146.581 L594.633 162.229 L590.374 162.229 L590.374 146.719 Q590.374 143.039 588.938 141.21 Q587.503 139.382 584.633 139.382 Q581.184 139.382 579.193 141.581 Q577.202 143.78 577.202 147.576 L577.202 162.229 L572.92 162.229 L572.92 136.303 L577.202 136.303 L577.202 140.331 Q578.73 137.993 580.79 136.835 Q582.874 135.678 585.582 135.678 Q590.049 135.678 592.341 138.456 Q594.633 141.21 594.633 146.581 Z" fill="#000000" fill-rule="nonzero" fill-opacity="1" /><path clip-path="url(#clip750)" d="M613.174 139.289 Q609.748 139.289 607.758 141.974 Q605.767 144.636 605.767 149.289 Q605.767 153.942 607.735 156.627 Q609.725 159.289 613.174 159.289 Q616.577 159.289 618.568 156.604 Q620.559 153.918 620.559 149.289 Q620.559 144.682 618.568 141.997 Q616.577 139.289 613.174 139.289 M613.174 135.678 Q618.73 135.678 621.901 139.289 Q625.072 142.9 625.072 149.289 Q625.072 155.655 621.901 159.289 Q618.73 162.9 613.174 162.9 Q607.596 162.9 604.424 159.289 Q601.276 155.655 601.276 149.289 Q601.276 142.9 604.424 139.289 Q607.596 135.678 613.174 135.678 Z" fill="#000000" fill-rule="nonzero" fill-opacity="1" /><path clip-path="url(#clip750)" d="M652.318 141.28 Q653.915 138.409 656.137 137.044 Q658.359 135.678 661.369 135.678 Q665.419 135.678 667.619 138.525 Q669.818 141.349 669.818 146.581 L669.818 162.229 L665.535 162.229 L665.535 146.719 Q665.535 142.993 664.216 141.187 Q662.896 139.382 660.188 139.382 Q656.878 139.382 654.957 141.581 Q653.035 143.78 653.035 147.576 L653.035 162.229 L648.753 162.229 L648.753 146.719 Q648.753 142.969 647.433 141.187 Q646.114 139.382 643.359 139.382 Q640.096 139.382 638.174 141.604 Q636.253 143.803 636.253 147.576 L636.253 162.229 L631.971 162.229 L631.971 136.303 L636.253 136.303 L636.253 140.331 Q637.711 137.946 639.748 136.812 Q641.785 135.678 644.586 135.678 Q647.41 135.678 649.378 137.113 Q651.369 138.548 652.318 141.28 Z" fill="#000000" fill-rule="nonzero" fill-opacity="1" /><path clip-path="url(#clip750)" d="M678.313 136.303 L682.572 136.303 L682.572 162.229 L678.313 162.229 L678.313 136.303 M678.313 126.21 L682.572 126.21 L682.572 131.604 L678.313 131.604 L678.313 126.21 Z" fill="#000000" fill-rule="nonzero" fill-opacity="1" /><path clip-path="url(#clip750)" d="M703.266 149.196 Q698.104 149.196 696.114 150.377 Q694.123 151.557 694.123 154.405 Q694.123 156.673 695.604 158.016 Q697.109 159.335 699.679 159.335 Q703.22 159.335 705.35 156.835 Q707.503 154.312 707.503 150.145 L707.503 149.196 L703.266 149.196 M711.762 147.437 L711.762 162.229 L707.503 162.229 L707.503 158.293 Q706.044 160.655 703.868 161.789 Q701.692 162.9 698.544 162.9 Q694.563 162.9 692.202 160.678 Q689.864 158.432 689.864 154.682 Q689.864 150.307 692.78 148.085 Q695.72 145.863 701.53 145.863 L707.503 145.863 L707.503 145.446 Q707.503 142.507 705.558 140.909 Q703.637 139.289 700.141 139.289 Q697.919 139.289 695.813 139.821 Q693.706 140.354 691.762 141.419 L691.762 137.483 Q694.1 136.581 696.299 136.141 Q698.498 135.678 700.581 135.678 Q706.206 135.678 708.984 138.594 Q711.762 141.511 711.762 147.437 Z" fill="#000000" fill-rule="nonzero" fill-opacity="1" /><path clip-path="url(#clip750)" d="M720.535 126.21 L724.794 126.21 L724.794 162.229 L720.535 162.229 L720.535 126.21 Z" fill="#000000" fill-rule="nonzero" fill-opacity="1" /><polyline clip-path="url(#clip750)" style="stroke:#e26f46; stroke-linecap:round; stroke-linejoin:round; stroke-width:16; stroke-opacity:1; fill:none" points="357.188,196.789 477.657,196.789 "/>
<path clip-path="url(#clip750)" d="M497.735 178.05 L501.994 178.05 L501.994 214.069 L497.735 214.069 L497.735 178.05 Z" fill="#000000" fill-rule="nonzero" fill-opacity="1" /><path clip-path="url(#clip750)" d="M522.689 201.036 Q517.527 201.036 515.536 202.217 Q513.545 203.397 513.545 206.245 Q513.545 208.513 515.027 209.856 Q516.531 211.175 519.101 211.175 Q522.642 211.175 524.772 208.675 Q526.925 206.152 526.925 201.985 L526.925 201.036 L522.689 201.036 M531.184 199.277 L531.184 214.069 L526.925 214.069 L526.925 210.133 Q525.466 212.495 523.291 213.629 Q521.115 214.74 517.967 214.74 Q513.985 214.74 511.624 212.518 Q509.286 210.272 509.286 206.522 Q509.286 202.147 512.203 199.925 Q515.142 197.703 520.953 197.703 L526.925 197.703 L526.925 197.286 Q526.925 194.347 524.98 192.749 Q523.059 191.129 519.564 191.129 Q517.342 191.129 515.235 191.661 Q513.129 192.194 511.184 193.259 L511.184 189.323 Q513.522 188.421 515.721 187.981 Q517.92 187.518 520.004 187.518 Q525.629 187.518 528.406 190.434 Q531.184 193.351 531.184 199.277 Z" fill="#000000" fill-rule="nonzero" fill-opacity="1" /><path clip-path="url(#clip750)" d="M557.017 200.805 Q557.017 196.175 555.096 193.629 Q553.198 191.083 549.749 191.083 Q546.323 191.083 544.402 193.629 Q542.503 196.175 542.503 200.805 Q542.503 205.411 544.402 207.958 Q546.323 210.504 549.749 210.504 Q553.198 210.504 555.096 207.958 Q557.017 205.411 557.017 200.805 M561.276 210.851 Q561.276 217.471 558.337 220.689 Q555.397 223.93 549.332 223.93 Q547.087 223.93 545.096 223.582 Q543.105 223.258 541.23 222.564 L541.23 218.42 Q543.105 219.439 544.934 219.925 Q546.763 220.411 548.661 220.411 Q552.851 220.411 554.934 218.212 Q557.017 216.036 557.017 211.615 L557.017 209.508 Q555.698 211.8 553.638 212.934 Q551.577 214.069 548.707 214.069 Q543.939 214.069 541.022 210.434 Q538.105 206.8 538.105 200.805 Q538.105 194.786 541.022 191.152 Q543.939 187.518 548.707 187.518 Q551.577 187.518 553.638 188.652 Q555.698 189.786 557.017 192.078 L557.017 188.143 L561.276 188.143 L561.276 210.851 Z" fill="#000000" fill-rule="nonzero" fill-opacity="1" /><path clip-path="url(#clip750)" d="M585.073 192.124 Q584.355 191.708 583.499 191.522 Q582.665 191.314 581.647 191.314 Q578.036 191.314 576.091 193.675 Q574.17 196.013 574.17 200.411 L574.17 214.069 L569.888 214.069 L569.888 188.143 L574.17 188.143 L574.17 192.171 Q575.513 189.809 577.665 188.675 Q579.818 187.518 582.897 187.518 Q583.337 187.518 583.869 187.587 Q584.401 187.634 585.05 187.749 L585.073 192.124 Z" fill="#000000" fill-rule="nonzero" fill-opacity="1" /><path clip-path="url(#clip750)" d="M601.323 201.036 Q596.161 201.036 594.17 202.217 Q592.179 203.397 592.179 206.245 Q592.179 208.513 593.661 209.856 Q595.165 211.175 597.735 211.175 Q601.276 211.175 603.406 208.675 Q605.559 206.152 605.559 201.985 L605.559 201.036 L601.323 201.036 M609.818 199.277 L609.818 214.069 L605.559 214.069 L605.559 210.133 Q604.1 212.495 601.924 213.629 Q599.748 214.74 596.6 214.74 Q592.619 214.74 590.258 212.518 Q587.92 210.272 587.92 206.522 Q587.92 202.147 590.837 199.925 Q593.776 197.703 599.586 197.703 L605.559 197.703 L605.559 197.286 Q605.559 194.347 603.614 192.749 Q601.693 191.129 598.198 191.129 Q595.975 191.129 593.869 191.661 Q591.762 192.194 589.818 193.259 L589.818 189.323 Q592.156 188.421 594.355 187.981 Q596.554 187.518 598.637 187.518 Q604.262 187.518 607.04 190.434 Q609.818 193.351 609.818 199.277 Z" fill="#000000" fill-rule="nonzero" fill-opacity="1" /><path clip-path="url(#clip750)" d="M640.142 198.421 L640.142 214.069 L635.883 214.069 L635.883 198.559 Q635.883 194.879 634.447 193.05 Q633.012 191.222 630.142 191.222 Q626.693 191.222 624.702 193.421 Q622.711 195.62 622.711 199.416 L622.711 214.069 L618.429 214.069 L618.429 188.143 L622.711 188.143 L622.711 192.171 Q624.239 189.833 626.299 188.675 Q628.383 187.518 631.091 187.518 Q635.558 187.518 637.85 190.296 Q640.142 193.05 640.142 198.421 Z" fill="#000000" fill-rule="nonzero" fill-opacity="1" /><path clip-path="url(#clip750)" d="M665.697 200.805 Q665.697 196.175 663.776 193.629 Q661.878 191.083 658.429 191.083 Q655.003 191.083 653.082 193.629 Q651.183 196.175 651.183 200.805 Q651.183 205.411 653.082 207.958 Q655.003 210.504 658.429 210.504 Q661.878 210.504 663.776 207.958 Q665.697 205.411 665.697 200.805 M669.956 210.851 Q669.956 217.471 667.017 220.689 Q664.077 223.93 658.012 223.93 Q655.767 223.93 653.776 223.582 Q651.785 223.258 649.91 222.564 L649.91 218.42 Q651.785 219.439 653.614 219.925 Q655.443 220.411 657.341 220.411 Q661.531 220.411 663.614 218.212 Q665.697 216.036 665.697 211.615 L665.697 209.508 Q664.378 211.8 662.318 212.934 Q660.257 214.069 657.387 214.069 Q652.619 214.069 649.702 210.434 Q646.785 206.8 646.785 200.805 Q646.785 194.786 649.702 191.152 Q652.619 187.518 657.387 187.518 Q660.257 187.518 662.318 188.652 Q664.378 189.786 665.697 192.078 L665.697 188.143 L669.956 188.143 L669.956 210.851 Z" fill="#000000" fill-rule="nonzero" fill-opacity="1" /><path clip-path="url(#clip750)" d="M700.905 200.041 L700.905 202.124 L681.322 202.124 Q681.6 206.522 683.961 208.837 Q686.345 211.129 690.581 211.129 Q693.035 211.129 695.327 210.527 Q697.641 209.925 699.91 208.721 L699.91 212.749 Q697.618 213.721 695.211 214.231 Q692.804 214.74 690.327 214.74 Q684.123 214.74 680.489 211.129 Q676.878 207.518 676.878 201.36 Q676.878 194.995 680.304 191.268 Q683.753 187.518 689.586 187.518 Q694.817 187.518 697.85 190.897 Q700.905 194.254 700.905 200.041 M696.646 198.791 Q696.6 195.296 694.679 193.212 Q692.78 191.129 689.632 191.129 Q686.067 191.129 683.915 193.143 Q681.785 195.157 681.461 198.814 L696.646 198.791 Z" fill="#000000" fill-rule="nonzero" fill-opacity="1" /><polyline clip-path="url(#clip750)" style="stroke:#000000; stroke-linecap:round; stroke-linejoin:round; stroke-width:4; stroke-opacity:1; fill:none" points="2083.91,1423.18 2083.91,47.2441 "/>
<polyline clip-path="url(#clip750)" style="stroke:#000000; stroke-linecap:round; stroke-linejoin:round; stroke-width:4; stroke-opacity:1; fill:none" points="2083.91,777.604 2065.01,777.604 "/>
<polyline clip-path="url(#clip750)" style="stroke:#000000; stroke-linecap:round; stroke-linejoin:round; stroke-width:4; stroke-opacity:1; fill:none" points="2083.91,112.487 2065.01,112.487 "/>
<path clip-path="url(#clip750)" d="M2120.58 797.396 L2128.22 797.396 L2128.22 771.031 L2119.91 772.698 L2119.91 768.438 L2128.17 766.772 L2132.85 766.772 L2132.85 797.396 L2140.49 797.396 L2140.49 801.332 L2120.58 801.332 L2120.58 797.396 Z" fill="#000000" fill-rule="nonzero" fill-opacity="1" /><path clip-path="url(#clip750)" d="M2159.93 769.85 Q2156.32 769.85 2154.49 773.415 Q2152.69 776.957 2152.69 784.086 Q2152.69 791.193 2154.49 794.758 Q2156.32 798.299 2159.93 798.299 Q2163.57 798.299 2165.37 794.758 Q2167.2 791.193 2167.2 784.086 Q2167.2 776.957 2165.37 773.415 Q2163.57 769.85 2159.93 769.85 M2159.93 766.147 Q2165.74 766.147 2168.8 770.753 Q2171.88 775.336 2171.88 784.086 Q2171.88 792.813 2168.8 797.42 Q2165.74 802.003 2159.93 802.003 Q2154.12 802.003 2151.04 797.42 Q2147.99 792.813 2147.99 784.086 Q2147.99 775.336 2151.04 770.753 Q2154.12 766.147 2159.93 766.147 Z" fill="#000000" fill-rule="nonzero" fill-opacity="1" /><path clip-path="url(#clip750)" d="M2172.42 770.724 L2178.63 770.724 L2178.63 749.302 L2171.88 750.656 L2171.88 747.195 L2178.59 745.841 L2182.39 745.841 L2182.39 770.724 L2188.6 770.724 L2188.6 773.921 L2172.42 773.921 L2172.42 770.724 Z" fill="#000000" fill-rule="nonzero" fill-opacity="1" /><path clip-path="url(#clip750)" d="M2204.39 748.343 Q2201.46 748.343 2199.98 751.239 Q2198.51 754.117 2198.51 759.909 Q2198.51 765.683 2199.98 768.58 Q2201.46 771.457 2204.39 771.457 Q2207.35 771.457 2208.81 768.58 Q2210.3 765.683 2210.3 759.909 Q2210.3 754.117 2208.81 751.239 Q2207.35 748.343 2204.39 748.343 M2204.39 745.333 Q2209.12 745.333 2211.6 749.076 Q2214.1 752.8 2214.1 759.909 Q2214.1 767 2211.6 770.743 Q2209.12 774.467 2204.39 774.467 Q2199.67 774.467 2197.17 770.743 Q2194.69 767 2194.69 759.909 Q2194.69 752.8 2197.17 749.076 Q2199.67 745.333 2204.39 745.333 Z" fill="#000000" fill-rule="nonzero" fill-opacity="1" /><path clip-path="url(#clip750)" d="M2120.58 132.279 L2128.22 132.279 L2128.22 105.913 L2119.91 107.58 L2119.91 103.321 L2128.17 101.654 L2132.85 101.654 L2132.85 132.279 L2140.49 132.279 L2140.49 136.214 L2120.58 136.214 L2120.58 132.279 Z" fill="#000000" fill-rule="nonzero" fill-opacity="1" /><path clip-path="url(#clip750)" d="M2159.93 104.733 Q2156.32 104.733 2154.49 108.298 Q2152.69 111.839 2152.69 118.969 Q2152.69 126.075 2154.49 129.64 Q2156.32 133.182 2159.93 133.182 Q2163.57 133.182 2165.37 129.64 Q2167.2 126.075 2167.2 118.969 Q2167.2 111.839 2165.37 108.298 Q2163.57 104.733 2159.93 104.733 M2159.93 101.029 Q2165.74 101.029 2168.8 105.636 Q2171.88 110.219 2171.88 118.969 Q2171.88 127.696 2168.8 132.302 Q2165.74 136.885 2159.93 136.885 Q2154.12 136.885 2151.04 132.302 Q2147.99 127.696 2147.99 118.969 Q2147.99 110.219 2151.04 105.636 Q2154.12 101.029 2159.93 101.029 Z" fill="#000000" fill-rule="nonzero" fill-opacity="1" /><path clip-path="url(#clip750)" d="M2176.45 105.606 L2189.71 105.606 L2189.71 108.804 L2171.88 108.804 L2171.88 105.606 Q2174.04 103.368 2177.76 99.6067 Q2181.51 95.8263 2182.47 94.7355 Q2184.29 92.6854 2185 91.2749 Q2185.74 89.8455 2185.74 88.4725 Q2185.74 86.2344 2184.16 84.8238 Q2182.6 83.4132 2180.08 83.4132 Q2178.29 83.4132 2176.3 84.0339 Q2174.32 84.6545 2172.06 85.9147 L2172.06 82.0779 Q2174.36 81.1563 2176.35 80.6861 Q2178.35 80.2159 2180 80.2159 Q2184.36 80.2159 2186.96 82.3976 Q2189.56 84.5793 2189.56 88.228 Q2189.56 89.9583 2188.9 91.5194 Q2188.26 93.0616 2186.55 95.1681 Q2186.08 95.7135 2183.56 98.3278 Q2181.04 100.923 2176.45 105.606 Z" fill="#000000" fill-rule="nonzero" fill-opacity="1" /><path clip-path="url(#clip750)" d="M2205.81 83.2251 Q2202.87 83.2251 2201.39 86.1215 Q2199.92 88.9991 2199.92 94.7919 Q2199.92 100.566 2201.39 103.462 Q2202.87 106.34 2205.81 106.34 Q2208.76 106.34 2210.23 103.462 Q2211.71 100.566 2211.71 94.7919 Q2211.71 88.9991 2210.23 86.1215 Q2208.76 83.2251 2205.81 83.2251 M2205.81 80.2159 Q2210.53 80.2159 2213.01 83.9586 Q2215.51 87.6826 2215.51 94.7919 Q2215.51 101.882 2213.01 105.625 Q2210.53 109.349 2205.81 109.349 Q2201.08 109.349 2198.58 105.625 Q2196.1 101.882 2196.1 94.7919 Q2196.1 87.6826 2198.58 83.9586 Q2201.08 80.2159 2205.81 80.2159 Z" fill="#000000" fill-rule="nonzero" fill-opacity="1" /><path clip-path="url(#clip750)" d="M2274.25 853.137 L2279.73 853.137 Q2278.36 855.619 2277.69 858.134 Q2276.99 860.616 2276.99 863.163 Q2276.99 868.86 2280.62 872.011 Q2284.22 875.162 2290.74 875.162 Q2297.27 875.162 2300.9 872.011 Q2304.49 868.86 2304.49 863.163 Q2304.49 860.616 2303.82 858.134 Q2303.12 855.619 2301.75 853.137 L2307.17 853.137 Q2308.31 855.587 2308.88 858.229 Q2309.46 860.839 2309.46 863.799 Q2309.46 871.852 2304.4 876.594 Q2299.34 881.337 2290.74 881.337 Q2282.02 881.337 2277.02 876.562 Q2272.03 871.756 2272.03 863.417 Q2272.03 860.712 2272.6 858.134 Q2273.14 855.556 2274.25 853.137 Z" fill="#000000" fill-rule="nonzero" fill-opacity="1" /><path clip-path="url(#clip750)" d="M2276.99 829.138 Q2276.99 833.849 2280.68 836.586 Q2284.34 839.323 2290.74 839.323 Q2297.14 839.323 2300.83 836.618 Q2304.49 833.88 2304.49 829.138 Q2304.49 824.459 2300.8 821.722 Q2297.11 818.985 2290.74 818.985 Q2284.41 818.985 2280.72 821.722 Q2276.99 824.459 2276.99 829.138 M2272.03 829.138 Q2272.03 821.499 2276.99 817.139 Q2281.96 812.778 2290.74 812.778 Q2299.5 812.778 2304.49 817.139 Q2309.46 821.499 2309.46 829.138 Q2309.46 836.809 2304.49 841.169 Q2299.5 845.498 2290.74 845.498 Q2281.96 845.498 2276.99 841.169 Q2272.03 836.809 2272.03 829.138 Z" fill="#000000" fill-rule="nonzero" fill-opacity="1" /><path clip-path="url(#clip750)" d="M2287.02 773.438 L2308.53 773.438 L2308.53 779.294 L2287.21 779.294 Q2282.15 779.294 2279.63 781.268 Q2277.12 783.241 2277.12 787.188 Q2277.12 791.93 2280.14 794.668 Q2283.17 797.405 2288.39 797.405 L2308.53 797.405 L2308.53 803.293 L2272.89 803.293 L2272.89 797.405 L2278.42 797.405 Q2275.21 795.304 2273.62 792.471 Q2272.03 789.607 2272.03 785.883 Q2272.03 779.74 2275.85 776.589 Q2279.63 773.438 2287.02 773.438 Z" fill="#000000" fill-rule="nonzero" fill-opacity="1" /><path clip-path="url(#clip750)" d="M2278.3 738.299 L2259.01 738.299 L2259.01 732.443 L2308.53 732.443 L2308.53 738.299 L2303.19 738.299 Q2306.37 740.145 2307.93 742.978 Q2309.46 745.779 2309.46 749.726 Q2309.46 756.187 2304.3 760.261 Q2299.14 764.303 2290.74 764.303 Q2282.34 764.303 2277.18 760.261 Q2272.03 756.187 2272.03 749.726 Q2272.03 745.779 2273.59 742.978 Q2275.11 740.145 2278.3 738.299 M2290.74 758.256 Q2297.2 758.256 2300.9 755.614 Q2304.56 752.94 2304.56 748.293 Q2304.56 743.647 2300.9 740.973 Q2297.2 738.299 2290.74 738.299 Q2284.28 738.299 2280.62 740.973 Q2276.93 743.647 2276.93 748.293 Q2276.93 752.94 2280.62 755.614 Q2284.28 758.256 2290.74 758.256 Z" fill="#000000" fill-rule="nonzero" fill-opacity="1" /><path clip-path="url(#clip750)" d="M2272.89 720.38 L2272.89 714.523 L2308.53 714.523 L2308.53 720.38 L2272.89 720.38 M2259.01 720.38 L2259.01 714.523 L2266.43 714.523 L2266.43 720.38 L2259.01 720.38 Z" fill="#000000" fill-rule="nonzero" fill-opacity="1" /><path clip-path="url(#clip750)" d="M2262.76 696.477 L2272.89 696.477 L2272.89 684.414 L2277.44 684.414 L2277.44 696.477 L2296.79 696.477 Q2301.15 696.477 2302.39 695.299 Q2303.63 694.09 2303.63 690.429 L2303.63 684.414 L2308.53 684.414 L2308.53 690.429 Q2308.53 697.209 2306.02 699.787 Q2303.47 702.365 2296.79 702.365 L2277.44 702.365 L2277.44 706.662 L2272.89 706.662 L2272.89 702.365 L2262.76 702.365 L2262.76 696.477 Z" fill="#000000" fill-rule="nonzero" fill-opacity="1" /><path clip-path="url(#clip750)" d="M2272.89 676.711 L2272.89 670.855 L2308.53 670.855 L2308.53 676.711 L2272.89 676.711 M2259.01 676.711 L2259.01 670.855 L2266.43 670.855 L2266.43 676.711 L2259.01 676.711 Z" fill="#000000" fill-rule="nonzero" fill-opacity="1" /><path clip-path="url(#clip750)" d="M2276.99 644.787 Q2276.99 649.498 2280.68 652.235 Q2284.34 654.972 2290.74 654.972 Q2297.14 654.972 2300.83 652.267 Q2304.49 649.53 2304.49 644.787 Q2304.49 640.108 2300.8 637.371 Q2297.11 634.634 2290.74 634.634 Q2284.41 634.634 2280.72 637.371 Q2276.99 640.108 2276.99 644.787 M2272.03 644.787 Q2272.03 637.148 2276.99 632.788 Q2281.96 628.427 2290.74 628.427 Q2299.5 628.427 2304.49 632.788 Q2309.46 637.148 2309.46 644.787 Q2309.46 652.458 2304.49 656.818 Q2299.5 661.147 2290.74 661.147 Q2281.96 661.147 2276.99 656.818 Q2272.03 652.458 2272.03 644.787 Z" fill="#000000" fill-rule="nonzero" fill-opacity="1" /><path clip-path="url(#clip750)" d="M2287.02 589.087 L2308.53 589.087 L2308.53 594.944 L2287.21 594.944 Q2282.15 594.944 2279.63 596.917 Q2277.12 598.89 2277.12 602.837 Q2277.12 607.58 2280.14 610.317 Q2283.17 613.054 2288.39 613.054 L2308.53 613.054 L2308.53 618.942 L2272.89 618.942 L2272.89 613.054 L2278.42 613.054 Q2275.21 610.953 2273.62 608.121 Q2272.03 605.256 2272.03 601.532 Q2272.03 595.389 2275.85 592.238 Q2279.63 589.087 2287.02 589.087 Z" fill="#000000" fill-rule="nonzero" fill-opacity="1" /><polyline clip-path="url(#clip752)" style="stroke:#000000; stroke-linecap:round; stroke-linejoin:round; stroke-width:16; stroke-opacity:1; fill:none" points="328.018,1384.24 336.585,1361.76 345.151,1336.19 353.718,1312.56 362.284,1286.88 370.851,1262.74 379.417,1237.04 387.984,1212.61 396.551,1186.9 405.117,1162.29 413.684,1136.58 422.25,1111.84 430.817,1086.14 439.383,1061.3 447.95,1035.62 456.517,1010.7 465.083,985.028 473.65,960.051 482.216,934.39 490.783,909.365 499.349,883.714 507.916,858.65 516.483,833.008 525.049,807.911 533.616,782.277 542.182,757.153 550.749,731.526 559.316,706.378 567.882,680.758 576.449,655.588 585.015,629.976 593.582,604.787 602.148,579.181 610.715,553.976 619.282,528.369 627.848,503.152 636.415,477.56 644.981,452.276 653.548,426.888 662.114,401.607 670.681,375.211 679.248,351.741 687.814,321.084 696.381,314.367 704.947,281.268 713.514,272.771 722.08,274.885 730.647,258.783 739.214,251.382 747.78,235.494 756.347,210.313 764.913,258.992 773.48,229.919 782.046,239.126 790.613,229.856 799.18,210.727 807.746,214.944 816.313,222.021 824.879,219.657 833.446,229.073 842.013,234.524 850.579,224.478 859.146,202.677 867.712,208.444 876.279,165 884.845,204.241 893.412,216.047 901.979,189.7 910.545,208.437 919.112,197.633 927.678,203.155 936.245,166.718 944.811,198.602 953.378,204.701 961.945,213.992 970.511,195.039 979.078,195.673 987.644,204.465 996.211,196.062 1004.78,180.468 1013.34,134.591 1021.91,145.416 1030.48,193.192 1039.04,195.653 1047.61,194.746 1056.18,187.456 1064.74,171.861 1073.31,180.443 1081.88,166.06 1090.44,187.246 1099.01,182.815 1107.58,173.831 1116.14,175.669 1124.71,177.805 1133.28,133.964 1141.84,190.609 1150.41,179.501 1158.98,86.1857 1167.54,187.97 1176.11,177.225 1184.68,189.03 1193.24,169.691 1201.81,156.758 1210.38,169.373 1218.94,159.139 1227.51,184.116 1236.07,177.489 1244.64,160.039 1253.21,164.016 1261.77,119.062 1270.34,180.556 1278.91,132.164 1287.47,151.442 1296.04,159.715 1304.61,177.316 1313.17,165.769 1321.74,176.796 1330.31,117.599 1338.87,186.476 1347.44,162.848 1356.01,167.944 1364.57,162.146 1373.14,149.198 1381.71,177.488 1390.27,160.262 1398.84,148.433 1407.41,185.47 1415.97,197.507 1424.54,197.809 1433.11,188.859 1441.67,202.234 1450.24,177.76 1458.81,173.573 1467.37,189.861 1475.94,178.874 1484.51,183.505 1493.07,137.115 1501.64,120.726 1510.21,186.895 1518.77,176.503 1527.34,152.512 1535.91,194.408 1544.47,191.276 1553.04,171.415 1561.6,176.475 1570.17,175.613 1578.74,158.287 1587.3,142.347 1595.87,146.638 1604.44,177.464 1613,163.978 1621.57,164.664 1630.14,188.468 1638.7,179.487 1647.27,173.532 1655.84,139.747 1664.4,186.72 1672.97,158.902 1681.54,172.573 1690.1,149.255 1698.67,167.061 1707.24,154.702 1715.8,159.404 1724.37,156.916 1732.94,170.838 1741.5,143.338 1750.07,176.682 1758.64,185.122 1767.2,188.812 1775.77,191.135 1784.34,153.593 1792.9,175.207 1801.47,106.827 1810.04,172.256 1818.6,161.61 1827.17,171.695 1835.74,155.121 1844.3,174.955 1852.87,133.653 1861.44,145.476 1870,186.014 1878.57,127.552 1887.13,160.198 1895.7,136.757 1904.27,160.176 1912.83,174.777 1921.4,157.912 1929.97,157.672 1938.53,172.537 1947.1,142.582 1955.67,174.088 1964.23,169.46 1972.8,163.97 1981.37,179.854 1989.93,164.669 1998.5,180.333 2007.07,158.478 "/>
<path clip-path="url(#clip750)" d="M1754.11 196.789 L2023.67 196.789 L2023.67 93.1086 L1754.11 93.1086  Z" fill="#ffffff" fill-rule="evenodd" fill-opacity="1"/>
<polyline clip-path="url(#clip750)" style="stroke:#000000; stroke-linecap:round; stroke-linejoin:round; stroke-width:4; stroke-opacity:1; fill:none" points="1754.11,196.789 2023.67,196.789 2023.67,93.1086 1754.11,93.1086 1754.11,196.789 "/>
<polyline clip-path="url(#clip750)" style="stroke:#000000; stroke-linecap:round; stroke-linejoin:round; stroke-width:16; stroke-opacity:1; fill:none" points="1774.18,144.949 1894.65,144.949 "/>
<path clip-path="url(#clip750)" d="M1914.73 136.303 L1919.13 136.303 L1919.13 147.067 L1930.31 136.303 L1935.49 136.303 L1925.29 146.071 L1937.09 162.229 L1931.88 162.229 L1922.3 148.849 L1919.13 151.835 L1919.13 162.229 L1914.73 162.229 L1914.73 136.303 Z" fill="#000000" fill-rule="nonzero" fill-opacity="1" /><path clip-path="url(#clip750)" d="M1952.95 126.257 Q1949.85 131.581 1948.34 136.789 Q1946.84 141.997 1946.84 147.344 Q1946.84 152.692 1948.34 157.946 Q1949.87 163.178 1952.95 168.479 L1949.24 168.479 Q1945.77 163.039 1944.04 157.784 Q1942.32 152.53 1942.32 147.344 Q1942.32 142.182 1944.04 136.951 Q1945.75 131.72 1949.24 126.257 L1952.95 126.257 Z" fill="#000000" fill-rule="nonzero" fill-opacity="1" /><path clip-path="url(#clip750)" d="M1970.31 162.229 L1957.12 127.669 L1962 127.669 L1972.95 156.766 L1983.92 127.669 L1988.78 127.669 L1975.61 162.229 L1970.31 162.229 Z" fill="#000000" fill-rule="nonzero" fill-opacity="1" /><path clip-path="url(#clip750)" d="M1992.97 126.257 L1996.68 126.257 Q2000.15 131.72 2001.86 136.951 Q2003.6 142.182 2003.6 147.344 Q2003.6 152.53 2001.86 157.784 Q2000.15 163.039 1996.68 168.479 L1992.97 168.479 Q1996.05 163.178 1997.55 157.946 Q1999.08 152.692 1999.08 147.344 Q1999.08 141.997 1997.55 136.789 Q1996.05 131.581 1992.97 126.257 Z" fill="#000000" fill-rule="nonzero" fill-opacity="1" /><polyline clip-path="url(#clip750)" style="stroke:#000000; stroke-linecap:round; stroke-linejoin:round; stroke-width:4; stroke-opacity:1; fill:none" points="2083.91,401.576 2083.91,401.576 "/>
<polyline clip-path="url(#clip750)" style="stroke:#000000; stroke-linecap:round; stroke-linejoin:round; stroke-width:4; stroke-opacity:1; fill:none" points="2083.91,401.576 2065.01,401.576 "/>
<polyline clip-path="url(#clip750)" style="stroke:#000000; stroke-linecap:round; stroke-linejoin:round; stroke-width:4; stroke-opacity:1; fill:none" points="2083.91,401.576 2065.01,401.576 "/>
<path clip-path="url(#clip750)" d="M2120.58 421.368 L2128.22 421.368 L2128.22 395.003 L2119.91 396.669 L2119.91 392.41 L2128.17 390.743 L2132.85 390.743 L2132.85 421.368 L2140.49 421.368 L2140.49 425.303 L2120.58 425.303 L2120.58 421.368 Z" fill="#000000" fill-rule="nonzero" fill-opacity="1" /><path clip-path="url(#clip750)" d="M2159.93 393.822 Q2156.32 393.822 2154.49 397.387 Q2152.69 400.929 2152.69 408.058 Q2152.69 415.165 2154.49 418.729 Q2156.32 422.271 2159.93 422.271 Q2163.57 422.271 2165.37 418.729 Q2167.2 415.165 2167.2 408.058 Q2167.2 400.929 2165.37 397.387 Q2163.57 393.822 2159.93 393.822 M2159.93 390.118 Q2165.74 390.118 2168.8 394.725 Q2171.88 399.308 2171.88 408.058 Q2171.88 416.785 2168.8 421.391 Q2165.74 425.975 2159.93 425.975 Q2154.12 425.975 2151.04 421.391 Q2147.99 416.785 2147.99 408.058 Q2147.99 399.308 2151.04 394.725 Q2154.12 390.118 2159.93 390.118 Z" fill="#000000" fill-rule="nonzero" fill-opacity="1" /><path clip-path="url(#clip750)" d="M2172.42 394.696 L2178.63 394.696 L2178.63 373.274 L2171.88 374.628 L2171.88 371.167 L2178.59 369.813 L2182.39 369.813 L2182.39 394.696 L2188.6 394.696 L2188.6 397.893 L2172.42 397.893 L2172.42 394.696 Z" fill="#000000" fill-rule="nonzero" fill-opacity="1" /><path clip-path="url(#clip750)" d="M2196.31 369.813 L2211.22 369.813 L2211.22 373.01 L2199.79 373.01 L2199.79 379.894 Q2200.61 379.612 2201.44 379.48 Q2202.27 379.33 2203.1 379.33 Q2207.8 379.33 2210.55 381.906 Q2213.29 384.483 2213.29 388.884 Q2213.29 393.417 2210.47 395.937 Q2207.65 398.438 2202.51 398.438 Q2200.75 398.438 2198.9 398.138 Q2197.08 397.837 2195.12 397.235 L2195.12 393.417 Q2196.82 394.338 2198.62 394.79 Q2200.43 395.241 2202.44 395.241 Q2205.69 395.241 2207.59 393.53 Q2209.49 391.818 2209.49 388.884 Q2209.49 385.95 2207.59 384.239 Q2205.69 382.527 2202.44 382.527 Q2200.92 382.527 2199.39 382.866 Q2197.89 383.204 2196.31 383.919 L2196.31 369.813 Z" fill="#000000" fill-rule="nonzero" fill-opacity="1" /><path clip-path="url(#clip750)" d="M2220.78 393.116 L2224.74 393.116 L2224.74 397.893 L2220.78 397.893 L2220.78 393.116 Z" fill="#000000" fill-rule="nonzero" fill-opacity="1" /><path clip-path="url(#clip750)" d="M2241.62 382.339 Q2239.06 382.339 2237.55 384.088 Q2236.07 385.837 2236.07 388.884 Q2236.07 391.912 2237.55 393.68 Q2239.06 395.429 2241.62 395.429 Q2244.17 395.429 2245.66 393.68 Q2247.16 391.912 2247.16 388.884 Q2247.16 385.837 2245.66 384.088 Q2244.17 382.339 2241.62 382.339 M2249.16 370.434 L2249.16 373.894 Q2247.73 373.217 2246.26 372.86 Q2244.81 372.503 2243.38 372.503 Q2239.62 372.503 2237.63 375.042 Q2235.65 377.581 2235.37 382.715 Q2236.48 381.079 2238.15 380.214 Q2239.83 379.33 2241.84 379.33 Q2246.07 379.33 2248.52 381.906 Q2250.98 384.464 2250.98 388.884 Q2250.98 393.21 2248.42 395.824 Q2245.87 398.438 2241.62 398.438 Q2236.74 398.438 2234.17 394.715 Q2231.59 390.972 2231.59 383.881 Q2231.59 377.223 2234.75 373.274 Q2237.91 369.305 2243.23 369.305 Q2244.66 369.305 2246.11 369.587 Q2247.58 369.869 2249.16 370.434 Z" fill="#000000" fill-rule="nonzero" fill-opacity="1" /><path clip-path="url(#clip750)" d="M2257.56 369.813 L2272.48 369.813 L2272.48 373.01 L2261.04 373.01 L2261.04 379.894 Q2261.87 379.612 2262.7 379.48 Q2263.53 379.33 2264.35 379.33 Q2269.06 379.33 2271.8 381.906 Q2274.55 384.483 2274.55 388.884 Q2274.55 393.417 2271.73 395.937 Q2268.91 398.438 2263.77 398.438 Q2262 398.438 2260.16 398.138 Q2258.34 397.837 2256.38 397.235 L2256.38 393.417 Q2258.07 394.338 2259.88 394.79 Q2261.68 395.241 2263.7 395.241 Q2266.95 395.241 2268.85 393.53 Q2270.75 391.818 2270.75 388.884 Q2270.75 385.95 2268.85 384.239 Q2266.95 382.527 2263.7 382.527 Q2262.17 382.527 2260.65 382.866 Q2259.14 383.204 2257.56 383.919 L2257.56 369.813 Z" fill="#000000" fill-rule="nonzero" fill-opacity="1" /><path clip-path="url(#clip750)" d="M2293.54 382.753 Q2296.27 383.336 2297.79 385.179 Q2299.34 387.022 2299.34 389.73 Q2299.34 393.887 2296.48 396.163 Q2293.62 398.438 2288.35 398.438 Q2286.58 398.438 2284.7 398.081 Q2282.84 397.743 2280.85 397.047 L2280.85 393.379 Q2282.43 394.301 2284.31 394.771 Q2286.19 395.241 2288.24 395.241 Q2291.81 395.241 2293.68 393.831 Q2295.56 392.42 2295.56 389.73 Q2295.56 387.248 2293.81 385.856 Q2292.08 384.445 2288.97 384.445 L2285.7 384.445 L2285.7 381.323 L2289.12 381.323 Q2291.93 381.323 2293.41 380.214 Q2294.9 379.085 2294.9 376.979 Q2294.9 374.816 2293.36 373.669 Q2291.83 372.503 2288.97 372.503 Q2287.41 372.503 2285.63 372.841 Q2283.84 373.18 2281.69 373.894 L2281.69 370.509 Q2283.86 369.907 2285.74 369.606 Q2287.64 369.305 2289.31 369.305 Q2293.64 369.305 2296.16 371.28 Q2298.68 373.236 2298.68 376.584 Q2298.68 378.916 2297.34 380.533 Q2296.01 382.132 2293.54 382.753 Z" fill="#000000" fill-rule="nonzero" fill-opacity="1" /><path clip-path="url(#clip750)" d="M2306.58 369.813 L2321.49 369.813 L2321.49 373.01 L2310.06 373.01 L2310.06 379.894 Q2310.88 379.612 2311.71 379.48 Q2312.54 379.33 2313.37 379.33 Q2318.07 379.33 2320.82 381.906 Q2323.56 384.483 2323.56 388.884 Q2323.56 393.417 2320.74 395.937 Q2317.92 398.438 2312.78 398.438 Q2311.02 398.438 2309.17 398.138 Q2307.35 397.837 2305.39 397.235 L2305.39 393.417 Q2307.09 394.338 2308.89 394.79 Q2310.7 395.241 2312.71 395.241 Q2315.96 395.241 2317.86 393.53 Q2319.76 391.818 2319.76 388.884 Q2319.76 385.95 2317.86 384.239 Q2315.96 382.527 2312.71 382.527 Q2311.19 382.527 2309.66 382.866 Q2308.16 383.204 2306.58 383.919 L2306.58 369.813 Z" fill="#000000" fill-rule="nonzero" fill-opacity="1" /><path clip-path="url(#clip750)" d="M2339.64 382.339 Q2337.08 382.339 2335.58 384.088 Q2334.09 385.837 2334.09 388.884 Q2334.09 391.912 2335.58 393.68 Q2337.08 395.429 2339.64 395.429 Q2342.2 395.429 2343.69 393.68 Q2345.19 391.912 2345.19 388.884 Q2345.19 385.837 2343.69 384.088 Q2342.2 382.339 2339.64 382.339 M2347.18 370.434 L2347.18 373.894 Q2345.75 373.217 2344.29 372.86 Q2342.84 372.503 2341.41 372.503 Q2337.65 372.503 2335.65 375.042 Q2333.68 377.581 2333.4 382.715 Q2334.51 381.079 2336.18 380.214 Q2337.85 379.33 2339.87 379.33 Q2344.1 379.33 2346.54 381.906 Q2349.01 384.464 2349.01 388.884 Q2349.01 393.21 2346.45 395.824 Q2343.89 398.438 2339.64 398.438 Q2334.77 398.438 2332.19 394.715 Q2329.62 390.972 2329.62 383.881 Q2329.62 377.223 2332.78 373.274 Q2335.94 369.305 2341.26 369.305 Q2342.69 369.305 2344.14 369.587 Q2345.6 369.869 2347.18 370.434 Z" fill="#000000" fill-rule="nonzero" fill-opacity="1" /><path clip-path="url(#clip750)" d="M2120.58 421.368 L2128.22 421.368 L2128.22 395.003 L2119.91 396.669 L2119.91 392.41 L2128.17 390.743 L2132.85 390.743 L2132.85 421.368 L2140.49 421.368 L2140.49 425.303 L2120.58 425.303 L2120.58 421.368 Z" fill="#000000" fill-rule="nonzero" fill-opacity="1" /><path clip-path="url(#clip750)" d="M2159.93 393.822 Q2156.32 393.822 2154.49 397.387 Q2152.69 400.929 2152.69 408.058 Q2152.69 415.165 2154.49 418.729 Q2156.32 422.271 2159.93 422.271 Q2163.57 422.271 2165.37 418.729 Q2167.2 415.165 2167.2 408.058 Q2167.2 400.929 2165.37 397.387 Q2163.57 393.822 2159.93 393.822 M2159.93 390.118 Q2165.74 390.118 2168.8 394.725 Q2171.88 399.308 2171.88 408.058 Q2171.88 416.785 2168.8 421.391 Q2165.74 425.975 2159.93 425.975 Q2154.12 425.975 2151.04 421.391 Q2147.99 416.785 2147.99 408.058 Q2147.99 399.308 2151.04 394.725 Q2154.12 390.118 2159.93 390.118 Z" fill="#000000" fill-rule="nonzero" fill-opacity="1" /><path clip-path="url(#clip750)" d="M2172.42 394.696 L2178.63 394.696 L2178.63 373.274 L2171.88 374.628 L2171.88 371.167 L2178.59 369.813 L2182.39 369.813 L2182.39 394.696 L2188.6 394.696 L2188.6 397.893 L2172.42 397.893 L2172.42 394.696 Z" fill="#000000" fill-rule="nonzero" fill-opacity="1" /><path clip-path="url(#clip750)" d="M2196.31 369.813 L2211.22 369.813 L2211.22 373.01 L2199.79 373.01 L2199.79 379.894 Q2200.61 379.612 2201.44 379.48 Q2202.27 379.33 2203.1 379.33 Q2207.8 379.33 2210.55 381.906 Q2213.29 384.483 2213.29 388.884 Q2213.29 393.417 2210.47 395.937 Q2207.65 398.438 2202.51 398.438 Q2200.75 398.438 2198.9 398.138 Q2197.08 397.837 2195.12 397.235 L2195.12 393.417 Q2196.82 394.338 2198.62 394.79 Q2200.43 395.241 2202.44 395.241 Q2205.69 395.241 2207.59 393.53 Q2209.49 391.818 2209.49 388.884 Q2209.49 385.95 2207.59 384.239 Q2205.69 382.527 2202.44 382.527 Q2200.92 382.527 2199.39 382.866 Q2197.89 383.204 2196.31 383.919 L2196.31 369.813 Z" fill="#000000" fill-rule="nonzero" fill-opacity="1" /><path clip-path="url(#clip750)" d="M2220.78 393.116 L2224.74 393.116 L2224.74 397.893 L2220.78 397.893 L2220.78 393.116 Z" fill="#000000" fill-rule="nonzero" fill-opacity="1" /><path clip-path="url(#clip750)" d="M2241.62 382.339 Q2239.06 382.339 2237.55 384.088 Q2236.07 385.837 2236.07 388.884 Q2236.07 391.912 2237.55 393.68 Q2239.06 395.429 2241.62 395.429 Q2244.17 395.429 2245.66 393.68 Q2247.16 391.912 2247.16 388.884 Q2247.16 385.837 2245.66 384.088 Q2244.17 382.339 2241.62 382.339 M2249.16 370.434 L2249.16 373.894 Q2247.73 373.217 2246.26 372.86 Q2244.81 372.503 2243.38 372.503 Q2239.62 372.503 2237.63 375.042 Q2235.65 377.581 2235.37 382.715 Q2236.48 381.079 2238.15 380.214 Q2239.83 379.33 2241.84 379.33 Q2246.07 379.33 2248.52 381.906 Q2250.98 384.464 2250.98 388.884 Q2250.98 393.21 2248.42 395.824 Q2245.87 398.438 2241.62 398.438 Q2236.74 398.438 2234.17 394.715 Q2231.59 390.972 2231.59 383.881 Q2231.59 377.223 2234.75 373.274 Q2237.91 369.305 2243.23 369.305 Q2244.66 369.305 2246.11 369.587 Q2247.58 369.869 2249.16 370.434 Z" fill="#000000" fill-rule="nonzero" fill-opacity="1" /><path clip-path="url(#clip750)" d="M2257.56 369.813 L2272.48 369.813 L2272.48 373.01 L2261.04 373.01 L2261.04 379.894 Q2261.87 379.612 2262.7 379.48 Q2263.53 379.33 2264.35 379.33 Q2269.06 379.33 2271.8 381.906 Q2274.55 384.483 2274.55 388.884 Q2274.55 393.417 2271.73 395.937 Q2268.91 398.438 2263.77 398.438 Q2262 398.438 2260.16 398.138 Q2258.34 397.837 2256.38 397.235 L2256.38 393.417 Q2258.07 394.338 2259.88 394.79 Q2261.68 395.241 2263.7 395.241 Q2266.95 395.241 2268.85 393.53 Q2270.75 391.818 2270.75 388.884 Q2270.75 385.95 2268.85 384.239 Q2266.95 382.527 2263.7 382.527 Q2262.17 382.527 2260.65 382.866 Q2259.14 383.204 2257.56 383.919 L2257.56 369.813 Z" fill="#000000" fill-rule="nonzero" fill-opacity="1" /><path clip-path="url(#clip750)" d="M2293.54 382.753 Q2296.27 383.336 2297.79 385.179 Q2299.34 387.022 2299.34 389.73 Q2299.34 393.887 2296.48 396.163 Q2293.62 398.438 2288.35 398.438 Q2286.58 398.438 2284.7 398.081 Q2282.84 397.743 2280.85 397.047 L2280.85 393.379 Q2282.43 394.301 2284.31 394.771 Q2286.19 395.241 2288.24 395.241 Q2291.81 395.241 2293.68 393.831 Q2295.56 392.42 2295.56 389.73 Q2295.56 387.248 2293.81 385.856 Q2292.08 384.445 2288.97 384.445 L2285.7 384.445 L2285.7 381.323 L2289.12 381.323 Q2291.93 381.323 2293.41 380.214 Q2294.9 379.085 2294.9 376.979 Q2294.9 374.816 2293.36 373.669 Q2291.83 372.503 2288.97 372.503 Q2287.41 372.503 2285.63 372.841 Q2283.84 373.18 2281.69 373.894 L2281.69 370.509 Q2283.86 369.907 2285.74 369.606 Q2287.64 369.305 2289.31 369.305 Q2293.64 369.305 2296.16 371.28 Q2298.68 373.236 2298.68 376.584 Q2298.68 378.916 2297.34 380.533 Q2296.01 382.132 2293.54 382.753 Z" fill="#000000" fill-rule="nonzero" fill-opacity="1" /><path clip-path="url(#clip750)" d="M2306.58 369.813 L2321.49 369.813 L2321.49 373.01 L2310.06 373.01 L2310.06 379.894 Q2310.88 379.612 2311.71 379.48 Q2312.54 379.33 2313.37 379.33 Q2318.07 379.33 2320.82 381.906 Q2323.56 384.483 2323.56 388.884 Q2323.56 393.417 2320.74 395.937 Q2317.92 398.438 2312.78 398.438 Q2311.02 398.438 2309.17 398.138 Q2307.35 397.837 2305.39 397.235 L2305.39 393.417 Q2307.09 394.338 2308.89 394.79 Q2310.7 395.241 2312.71 395.241 Q2315.96 395.241 2317.86 393.53 Q2319.76 391.818 2319.76 388.884 Q2319.76 385.95 2317.86 384.239 Q2315.96 382.527 2312.71 382.527 Q2311.19 382.527 2309.66 382.866 Q2308.16 383.204 2306.58 383.919 L2306.58 369.813 Z" fill="#000000" fill-rule="nonzero" fill-opacity="1" /><path clip-path="url(#clip750)" d="M2339.64 382.339 Q2337.08 382.339 2335.58 384.088 Q2334.09 385.837 2334.09 388.884 Q2334.09 391.912 2335.58 393.68 Q2337.08 395.429 2339.64 395.429 Q2342.2 395.429 2343.69 393.68 Q2345.19 391.912 2345.19 388.884 Q2345.19 385.837 2343.69 384.088 Q2342.2 382.339 2339.64 382.339 M2347.18 370.434 L2347.18 373.894 Q2345.75 373.217 2344.29 372.86 Q2342.84 372.503 2341.41 372.503 Q2337.65 372.503 2335.65 375.042 Q2333.68 377.581 2333.4 382.715 Q2334.51 381.079 2336.18 380.214 Q2337.85 379.33 2339.87 379.33 Q2344.1 379.33 2346.54 381.906 Q2349.01 384.464 2349.01 388.884 Q2349.01 393.21 2346.45 395.824 Q2343.89 398.438 2339.64 398.438 Q2334.77 398.438 2332.19 394.715 Q2329.62 390.972 2329.62 383.881 Q2329.62 377.223 2332.78 373.274 Q2335.94 369.305 2341.26 369.305 Q2342.69 369.305 2344.14 369.587 Q2345.6 369.869 2347.18 370.434 Z" fill="#000000" fill-rule="nonzero" fill-opacity="1" /><polyline clip-path="url(#clip752)" style="stroke:#ff0000; stroke-linecap:round; stroke-linejoin:round; stroke-width:16; stroke-opacity:1; fill:none" stroke-dasharray="64, 40" points="328.018,401.576 336.585,401.576 345.151,401.576 353.718,401.576 362.284,401.576 370.851,401.576 379.417,401.576 387.984,401.576 396.551,401.576 405.117,401.576 413.684,401.576 422.25,401.576 430.817,401.576 439.383,401.576 447.95,401.576 456.517,401.576 465.083,401.576 473.65,401.576 482.216,401.576 490.783,401.576 499.349,401.576 507.916,401.576 516.483,401.576 525.049,401.576 533.616,401.576 542.182,401.576 550.749,401.576 559.316,401.576 567.882,401.576 576.449,401.576 585.015,401.576 593.582,401.576 602.148,401.576 610.715,401.576 619.282,401.576 627.848,401.576 636.415,401.576 644.981,401.576 653.548,401.576 662.114,401.576 670.681,401.576 679.248,401.576 687.814,401.576 696.381,401.576 704.947,401.576 713.514,401.576 722.08,401.576 730.647,401.576 739.214,401.576 747.78,401.576 756.347,401.576 764.913,401.576 773.48,401.576 782.046,401.576 790.613,401.576 799.18,401.576 807.746,401.576 816.313,401.576 824.879,401.576 833.446,401.576 842.013,401.576 850.579,401.576 859.146,401.576 867.712,401.576 876.279,401.576 884.845,401.576 893.412,401.576 901.979,401.576 910.545,401.576 919.112,401.576 927.678,401.576 936.245,401.576 944.811,401.576 953.378,401.576 961.945,401.576 970.511,401.576 979.078,401.576 987.644,401.576 996.211,401.576 1004.78,401.576 1013.34,401.576 1021.91,401.576 1030.48,401.576 1039.04,401.576 1047.61,401.576 1056.18,401.576 1064.74,401.576 1073.31,401.576 1081.88,401.576 1090.44,401.576 1099.01,401.576 1107.58,401.576 1116.14,401.576 1124.71,401.576 1133.28,401.576 1141.84,401.576 1150.41,401.576 1158.98,401.576 1167.54,401.576 1176.11,401.576 1184.68,401.576 1193.24,401.576 1201.81,401.576 1210.38,401.576 1218.94,401.576 1227.51,401.576 1236.07,401.576 1244.64,401.576 1253.21,401.576 1261.77,401.576 1270.34,401.576 1278.91,401.576 1287.47,401.576 1296.04,401.576 1304.61,401.576 1313.17,401.576 1321.74,401.576 1330.31,401.576 1338.87,401.576 1347.44,401.576 1356.01,401.576 1364.57,401.576 1373.14,401.576 1381.71,401.576 1390.27,401.576 1398.84,401.576 1407.41,401.576 1415.97,401.576 1424.54,401.576 1433.11,401.576 1441.67,401.576 1450.24,401.576 1458.81,401.576 1467.37,401.576 1475.94,401.576 1484.51,401.576 1493.07,401.576 1501.64,401.576 1510.21,401.576 1518.77,401.576 1527.34,401.576 1535.91,401.576 1544.47,401.576 1553.04,401.576 1561.6,401.576 1570.17,401.576 1578.74,401.576 1587.3,401.576 1595.87,401.576 1604.44,401.576 1613,401.576 1621.57,401.576 1630.14,401.576 1638.7,401.576 1647.27,401.576 1655.84,401.576 1664.4,401.576 1672.97,401.576 1681.54,401.576 1690.1,401.576 1698.67,401.576 1707.24,401.576 1715.8,401.576 1724.37,401.576 1732.94,401.576 1741.5,401.576 1750.07,401.576 1758.64,401.576 1767.2,401.576 1775.77,401.576 1784.34,401.576 1792.9,401.576 1801.47,401.576 1810.04,401.576 1818.6,401.576 1827.17,401.576 1835.74,401.576 1844.3,401.576 1852.87,401.576 1861.44,401.576 1870,401.576 1878.57,401.576 1887.13,401.576 1895.7,401.576 1904.27,401.576 1912.83,401.576 1921.4,401.576 1929.97,401.576 1938.53,401.576 1947.1,401.576 1955.67,401.576 1964.23,401.576 1972.8,401.576 1981.37,401.576 1989.93,401.576 1998.5,401.576 2007.07,401.576 "/>
</svg>
